<svg xmlns="http://www.w3.org/2000/svg" width="36" height="36" viewBox="0 0 36 36"><path d="M17.999.375C8.059.375 0 8.465 0 18.447a18.068 18.068 0 0 0 12.31 17.147c.9.166 1.23-.392 1.23-.871 0-.43-.016-1.565-.025-3.073-5.008 1.092-6.064-2.423-6.064-2.423-.818-2.087-1.998-2.643-1.998-2.643-1.635-1.121.124-1.099.124-1.099 1.805.128 2.756 1.863 2.756 1.863 1.606 2.761 4.213 1.964 5.239 1.5.163-1.167.629-1.963 1.143-2.415-3.997-.457-8.199-2.006-8.199-8.93 0-1.974.7-3.587 1.853-4.85-.186-.458-.803-2.295.175-4.783 0 0 1.512-.486 4.95 1.852 1.437-.4 2.976-.6 4.507-.608 1.529.008 3.07.207 4.507.608 3.436-2.338 4.944-1.852 4.944-1.852.982 2.488.365 4.325.18 4.782 1.153 1.264 1.85 2.877 1.85 4.85 0 6.942-4.209 8.47-8.218 8.917.645.558 1.221 1.66 1.221 3.347 0 2.416-.022 4.364-.022 4.957 0 .483.324 1.046 1.237.869A18.07 18.07 0 0 0 36 18.447C36 8.465 27.94.375 17.999.375" fill="#9e9e9e" fill-rule="evenodd"/></svg>