<svg xmlns="http://www.w3.org/2000/svg" viewBox="-241.9 332.3 36 36" width="36" height="36"><path d="M-223.9 332.3c-9.928 0-18 8.072-18 18s8.072 18 18 18 18-8.072 18-18-8.072-18-18-18zm5.006 18.31c.028 5.512-3.628 9.224-9.112 9.224-5.344 0-9.703-4.275-9.703-9.534 0-5.26 4.359-9.534 9.703-9.534 2.334 0 4.612.843 6.356 2.334l-2.475 2.784c-1.069-.928-2.475-1.434-3.91-1.434-3.29 0-5.934 2.616-5.934 5.85 0 3.206 2.672 5.85 5.935 5.85 2.784 0 4.584-1.322 5.175-3.712h-5.12v-3.685h9.085zm7.34.365v2.813h-2.25v-2.813h-2.812v-2.25h2.813v-2.813h2.25v2.813h2.812v2.25z" fill="#9e9e9e"/></svg>