<svg xmlns="http://www.w3.org/2000/svg" width="36" height="36" viewBox="0 0 36 36"><path d="M36 6.551a14.426 14.426 0 0 1-4.24 1.192 7.557 7.557 0 0 0 3.247-4.188 14.547 14.547 0 0 1-4.693 1.835A7.284 7.284 0 0 0 24.924 3c-4.077 0-7.384 3.391-7.384 7.573 0 .594.064 1.17.19 1.725-6.138-.316-11.579-3.328-15.224-7.916a7.711 7.711 0 0 0-1 3.812 7.623 7.623 0 0 0 3.286 6.303 7.251 7.251 0 0 1-3.347-.944v.093c0 3.67 2.547 6.732 5.927 7.426a7.043 7.043 0 0 1-1.946.266c-.475 0-.94-.046-1.39-.134.94 3.007 3.666 5.198 6.899 5.256a14.584 14.584 0 0 1-9.173 3.244c-.596 0-1.185-.034-1.762-.104A20.564 20.564 0 0 0 11.322 33c13.587 0 21.014-11.538 21.014-21.547 0-.33-.006-.659-.02-.982A15.158 15.158 0 0 0 36 6.551" fill="#9e9e9e" fill-rule="evenodd"/></svg>