<svg xmlns="http://www.w3.org/2000/svg" width="36" height="36" viewBox="0 0 36 36"><path d="M14.283 22.702l-.001-10.186 9.726 5.11zM35.64 10.751s-.352-2.499-1.431-3.599c-1.37-1.444-2.904-1.451-3.607-1.535-5.037-.367-12.594-.367-12.594-.367h-.016s-7.556 0-12.594.367c-.704.084-2.238.09-3.608 1.535C.71 8.252.36 10.751.36 10.751S0 13.685 0 16.618v2.751c0 2.935.36 5.868.36 5.868s.351 2.498 1.43 3.598c1.37 1.445 3.169 1.4 3.97 1.55 2.88.279 12.24.365 12.24.365s7.564-.011 12.602-.378c.703-.085 2.238-.092 3.607-1.537 1.079-1.1 1.431-3.598 1.431-3.598s.36-2.933.36-5.868v-2.75c0-2.934-.36-5.868-.36-5.868z" fill="#9e9e9e" fill-rule="evenodd"/></svg>