<?xml version="1.0" encoding="UTF-8" standalone="no"?>
<!-- Created with Inkscape (http://www.inkscape.org/) -->

<svg
   xmlns:dc="http://purl.org/dc/elements/1.1/"
   xmlns:cc="http://creativecommons.org/ns#"
   xmlns:rdf="http://www.w3.org/1999/02/22-rdf-syntax-ns#"
   xmlns:svg="http://www.w3.org/2000/svg"
   xmlns="http://www.w3.org/2000/svg"
   xmlns:xlink="http://www.w3.org/1999/xlink"
   xmlns:sodipodi="http://sodipodi.sourceforge.net/DTD/sodipodi-0.dtd"
   xmlns:inkscape="http://www.inkscape.org/namespaces/inkscape"
   width="192"
   height="192"
   viewBox="0 0 50.799999 50.799999"
   version="1.1"
   id="svg8"
   inkscape:version="0.92.1 r15371"
   sodipodi:docname="circle.svg"
   inkscape:export-xdpi="96"
   inkscape:export-ydpi="96">
  <sodipodi:namedview
     id="base"
     pagecolor="#ffffff"
     bordercolor="#666666"
     borderopacity="1.0"
     inkscape:pageopacity="0"
     inkscape:pageshadow="2"
     inkscape:zoom="4.3697917"
     inkscape:cx="98.598513"
     inkscape:cy="96"
     inkscape:document-units="px"
     inkscape:current-layer="layer1"
     showgrid="true"
     units="px"
     inkscape:window-width="1920"
     inkscape:window-height="1021"
     inkscape:window-x="0"
     inkscape:window-y="0"
     inkscape:window-maximized="1"
     inkscape:measure-start="0,0"
     inkscape:measure-end="0,0"
     showguides="false"
     inkscape:pagecheckerboard="false">
    <inkscape:grid
       empspacing="8"
       id="grid4728"
       type="xygrid" />
  </sodipodi:namedview>
  <defs
     id="defs2">
    <linearGradient
       inkscape:collect="always"
       id="linear-gradient-6">
      <stop
         style="stop-color:#000000;stop-opacity:1;"
         offset="0"
         id="stop6001" />
      <stop
         style="stop-color:#000000;stop-opacity:0;"
         offset="1"
         id="stop6003" />
    </linearGradient>
    <linearGradient
       id="radial-gradient-3"
       inkscape:collect="always">
      <stop
         id="stop4614"
         offset="0"
         style="stop-color:#ffffff;stop-opacity:0.1" />
      <stop
         id="stop4616"
         offset="1"
         style="stop-color:#ffffff;stop-opacity:0" />
    </linearGradient>
    <filter
       style="color-interpolation-filters:sRGB;"
       inkscape:label="Tint &amp; Shade"
       id="filter4769">
      <feFlood
         flood-opacity="0.2"
         flood-color="rgb(255,255,255)"
         result="flood"
         id="feFlood4759" />
      <feComposite
         in="flood"
         in2="SourceGraphic"
         operator="out"
         result="composite1"
         id="feComposite4761" />
      <feGaussianBlur
         in="composite1"
         stdDeviation="0"
         result="blur"
         id="feGaussianBlur4763" />
      <feOffset
         dx="0"
         dy="0.25"
         result="offset"
         id="feOffset4765" />
      <feComposite
         in="offset"
         in2="SourceGraphic"
         operator="atop"
         result="fbSourceGraphic"
         id="feComposite4767" />
      <feColorMatrix
         id="feColorMatrix4771"
         values="0 0 0 -1 0 0 0 0 -1 0 0 0 0 -1 0 0 0 0 1 0"
         in="fbSourceGraphic"
         result="fbSourceGraphicAlpha" />
      <feFlood
         in="fbSourceGraphic"
         result="flood"
         flood-color="rgb(38,50,56)"
         flood-opacity="0.2"
         id="feFlood4773" />
      <feComposite
         result="composite1"
         operator="out"
         in="flood"
         id="feComposite4775"
         in2="fbSourceGraphic" />
      <feGaussianBlur
         result="blur"
         stdDeviation="0"
         in="composite1"
         id="feGaussianBlur4777" />
      <feOffset
         result="offset"
         dy="-0.25"
         dx="0"
         id="feOffset4779" />
      <feComposite
         result="composite2"
         operator="atop"
         in="offset"
         id="feComposite4781"
         in2="fbSourceGraphic" />
    </filter>
    <radialGradient
       gradientUnits="userSpaceOnUse"
       gradientTransform="matrix(5.7506486e-7,2.2861032,-2.2861029,5.3682689e-7,569.34428,241.90886)"
       r="22.221214"
       fy="249.04579"
       fx="1.8769985"
       cy="249.04579"
       cx="1.8769985"
       id="radialGradient4620"
       xlink:href="#radial-gradient-3"
       inkscape:collect="always" />
    <filter
       id="filter4704"
       inkscape:label="Leaf Shadow"
       style="color-interpolation-filters:sRGB;">
      <feFlood
         id="feFlood4694"
         result="flood"
         flood-color="rgb(38,50,56)"
         flood-opacity="0.2" />
      <feComposite
         id="feComposite4696"
         result="composite1"
         operator="in"
         in2="SourceGraphic"
         in="flood" />
      <feGaussianBlur
         id="feGaussianBlur4698"
         result="blur"
         stdDeviation="1"
         in="composite1" />
      <feOffset
         id="feOffset4700"
         result="offset"
         dy="1"
         dx="0" />
      <feComposite
         id="feComposite4702"
         result="composite2"
         operator="over"
         in2="offset"
         in="SourceGraphic" />
    </filter>
    <radialGradient
       gradientTransform="matrix(-1.8846129e-8,2.0000002,-1.9999996,-9.2007957e-8,607.9615,254.23594)"
       gradientUnits="userSpaceOnUse"
       r="25.4"
       fy="303.9808"
       fx="-4.017951"
       cy="303.9808"
       cx="-4.017951"
       id="radialGradient4714"
       xlink:href="#radial-gradient-3"
       inkscape:collect="always" />
    <linearGradient
       inkscape:collect="always"
       xlink:href="#linear-gradient-6"
       id="linearGradient6007"
       x1="96"
       y1="96"
       x2="160"
       y2="160"
       gradientUnits="userSpaceOnUse" />
    <linearGradient
       inkscape:collect="always"
       xlink:href="#linear-gradient-6"
       id="linearGradient6029"
       gradientUnits="userSpaceOnUse"
       x1="96"
       y1="96"
       x2="160"
       y2="160" />
  </defs>
  <metadata
     id="metadata5">
    <rdf:RDF>
      <cc:Work
         rdf:about="">
        <dc:format>image/svg+xml</dc:format>
        <dc:type
           rdf:resource="http://purl.org/dc/dcmitype/StillImage" />
        <dc:title></dc:title>
      </cc:Work>
    </rdf:RDF>
  </metadata>
  <g
     transform="translate(0,-246.20001)"
     id="layer1"
     inkscape:groupmode="layer"
     inkscape:label="Main Layer">
    <g
       id="g6106"
       inkscape:label="Solid"
       style="display:none">
      <rect
         style="display:inline;opacity:1;fill:#00897b;fill-opacity:1;stroke-width:0.22348107"
         id="background-solid"
         width="40.216667"
         height="40.216667"
         x="5.2916665"
         y="251.49168"
         inkscape:label="Background" />
      <path
         inkscape:label="Long Shadow"
         inkscape:connector-curvature="0"
         id="long-shadow-solid"
         transform="matrix(0.26458333,0,0,0.26458333,0,246.20001)"
         d="m 96.003906,30.298828 c -0.0033,0.0025 -0.0064,0.004 -0.0098,0.0078 -9.884312,5.711471 -15.977664,16.256114 -15.990235,27.671875 10e-4,0.491792 0.0133,0.983422 0.03711,1.474609 0.05004,1.062425 0.153028,2.121683 0.308593,3.173828 6.66e-4,0.0038 0.0013,0.0079 0.002,0.01172 0.156247,1.052069 0.364837,2.095671 0.625,3.126953 0.119661,0.421228 0.247943,0.839922 0.384766,1.255859 0.16766,0.608882 0.353272,1.212664 0.556641,1.810547 0.726788,2.007307 1.652627,3.936862 2.763672,5.759766 0.832337,1.36542 1.767166,2.665833 2.792968,3.890625 0.0044,0.0053 0.0092,0.01032 0.01367,0.01563 0.01215,0.0145 0.02494,0.02849 0.03711,0.04297 0.326284,0.387665 0.659262,0.768561 1.003906,1.140625 0.0017,0.0017 0.0041,0.0042 0.0059,0.0059 9.04e-4,8.52e-4 0.003,6.16e-4 0.0039,0.002 0.0022,0.0024 0.0037,0.0054 0.0059,0.0078 0.0026,0.0025 0.0052,0.004 0.0078,0.0078 0.0062,0.0062 0.01326,0.01146 0.01953,0.01758 0.0026,0.0025 0.0052,0.004 0.0078,0.0078 l 0.0098,0.0098 c 0.0023,0.0022 0.0035,0.0056 0.0059,0.0078 0.0037,0.0041 0.008,0.0077 0.01172,0.01172 0.0026,0.0025 0.0052,0.0021 0.0078,0.0059 0.002,0.0019 0.0039,0.0039 0.0059,0.0059 0.01066,0.01145 0.02252,0.02177 0.0332,0.0332 0.0026,0.0025 0.0052,0.004 0.0078,0.0078 0.0046,0.0045 0.009,0.0092 0.01367,0.01367 0.01069,0.01143 0.0225,0.02179 0.0332,0.0332 l 0.002,0.002 c 0.02174,0.02316 0.0446,0.04527 0.06641,0.06836 0.0026,0.0025 0.0052,0.004 0.0078,0.0078 0.304239,0.321613 0.610648,0.640726 0.927735,0.949219 0.0059,0.0058 0.01164,0.0118 0.01758,0.01758 0.0096,0.0093 0.01972,0.01803 0.0293,0.02734 0.01285,0.01253 0.02424,0.02655 0.03711,0.03906 0.01647,0.01608 0.03233,0.03279 0.04883,0.04883 0.01975,0.0193 0.03879,0.03935 0.05859,0.05859 0.02402,0.02349 0.04816,0.0469 0.07227,0.07031 0.026,0.02543 0.05009,0.05279 0.07617,0.07812 0.03126,0.0306 0.06237,0.06133 0.09375,0.0918 0.0329,0.03222 0.06462,0.06558 0.09766,0.09766 0.03812,0.03738 0.07498,0.07609 0.113281,0.113281 0.0401,0.03934 0.07883,0.08002 0.11914,0.119141 0.04403,0.04322 0.08659,0.08789 0.13086,0.130859 0.04797,0.04713 0.09431,0.09575 0.142578,0.142578 0.0509,0.05004 0.101112,0.100694 0.152344,0.150391 0.05482,0.05394 0.106903,0.110524 0.162109,0.164062 0.05774,0.05685 0.113707,0.115475 0.171875,0.171875 0.06134,0.06043 0.121771,0.121711 0.183594,0.181641 0.06525,0.06433 0.127572,0.131556 0.193359,0.195312 0.0672,0.06629 0.133395,0.13353 0.201172,0.199219 0.07078,0.06989 0.139521,0.14172 0.210938,0.210937 0.07791,0.07701 0.153737,0.156228 0.232421,0.232422 0.07698,0.07608 0.152733,0.153233 0.230469,0.228516 0.08085,0.08 0.158543,0.163066 0.240235,0.242188 0.08698,0.08616 0.171814,0.174626 0.259765,0.259765 0.08832,0.0875 0.174351,0.177223 0.263672,0.263672 0.0932,0.09241 0.184984,0.186102 0.279297,0.277344 0.09351,0.09276 0.184664,0.187714 0.279297,0.279297 0.06625,0.06581 0.128492,0.135948 0.195312,0.201172 V 90.78922 C 93.886875,90.670037 93.769647,90.54906 93.648629,90.431799 93.517253,90.300075 93.387718,90.166651 93.254097,90.037267 93.139181,89.922234 93.025026,89.806763 92.908394,89.693517 92.781593,89.566345 92.658383,89.435697 92.529488,89.310705 92.411979,89.193116 92.295275,89.074862 92.175972,88.959142 92.056797,88.839959 91.939569,88.718984 91.81855,88.60172 91.714947,88.498317 91.612998,88.393127 91.508003,88.291174 91.400514,88.18376 91.294726,88.07476 91.185738,87.968908 91.080167,87.863484 90.976347,87.75642 90.869332,87.652502 90.76896,87.552375 90.670226,87.450488 90.56855,87.35172 c -0.09167,-0.09139 -0.180676,-0.185135 -0.273437,-0.27539 -0.09975,-0.09952 -0.197792,-0.200648 -0.298828,-0.298828 -0.09563,-0.0952 -0.190301,-0.19119 -0.28711,-0.285156 -0.08066,-0.08013 -0.158739,-0.162936 -0.240234,-0.242188 -0.08361,-0.08315 -0.165486,-0.167796 -0.25,-0.25 -0.08006,-0.07956 -0.159348,-0.159587 -0.240234,-0.238281 -0.07087,-0.07038 -0.139423,-0.143188 -0.210938,-0.212891 -0.07936,-0.07888 -0.156158,-0.16025 -0.236328,-0.238281 -0.06997,-0.06938 -0.138388,-0.140259 -0.208984,-0.208985 -0.07195,-0.0713 -0.142229,-0.144238 -0.214844,-0.214843 -0.05109,-0.05052 -0.100916,-0.102171 -0.152344,-0.152344 -0.0654,-0.06483 -0.12936,-0.131052 -0.195312,-0.195313 -0.05597,-0.05536 -0.109641,-0.113026 -0.166016,-0.167968 -0.05796,-0.05729 -0.115438,-0.115033 -0.173828,-0.171875 -0.03769,-0.03718 -0.07346,-0.07629 -0.111328,-0.113281 -0.05206,-0.05148 -0.103842,-0.103181 -0.15625,-0.154297 -0.04852,-0.04787 -0.09571,-0.09698 -0.144532,-0.144532 -0.02624,-0.02583 -0.05179,-0.05239 -0.07812,-0.07813 -0.04162,-0.04108 -0.0812,-0.08416 -0.123047,-0.125 -0.0315,-0.03101 -0.06212,-0.06287 -0.09375,-0.09375 -0.03513,-0.03457 -0.07019,-0.06911 -0.105469,-0.103515 -0.01149,-0.01128 -0.0217,-0.02389 -0.0332,-0.03516 l -0.002,-0.002 c -0.02822,-0.02778 -0.05567,-0.05631 -0.08398,-0.08398 -0.02234,-0.02194 -0.044,-0.04453 -0.06641,-0.06641 -0.0066,-0.0064 -0.01294,-0.01311 -0.01953,-0.01953 -0.002,-0.0019 -0.0039,-0.0039 -0.0059,-0.0059 -0.01018,-0.01001 -0.01911,-0.02125 -0.0293,-0.03125 -0.0086,-0.0084 -0.01683,-0.01703 -0.02539,-0.02539 -0.0053,-0.0051 -0.01036,-0.01047 -0.01563,-0.01563 -0.375392,-0.367339 -0.761404,-0.723949 -1.154297,-1.072265 -1.599106,-1.417673 -3.338399,-2.67611 -5.197266,-3.751953 -2.278227,-1.310967 -4.709301,-2.336287 -7.238281,-3.052735 -1.023284,-0.289889 -2.060379,-0.528324 -3.107422,-0.714843 -0.0033,-6.43e-4 -0.0064,-0.0013 -0.0098,-0.002 -0.382549,-0.05556 -0.766077,-0.104531 -1.150391,-0.146484 -7.066677,-1.005581 -14.266687,0.380435 -20.455078,3.9375 l 0.0039,0.002 c -0.0038,0.0025 -0.0079,0.004 -0.01172,0.0078 0.0023,7.856296 2.884941,15.301144 7.902344,21.044922 0.450853,0.516123 0.917554,1.020116 1.402344,1.507816 0.0026,0.003 0.0052,0.005 0.0078,0.008 0.0071,0.007 0.01436,0.0143 0.02148,0.0215 0.01523,0.0153 0.03162,0.0296 0.04687,0.0449 0.0068,0.007 0.01467,0.0127 0.02148,0.0195 0.0026,0.003 0.0052,0.005 0.0078,0.008 0.01686,0.017 0.03388,0.0338 0.05078,0.0508 0.02074,0.0209 0.04169,0.0416 0.0625,0.0625 0.01946,0.0196 0.03908,0.039 0.05859,0.0586 0.03207,0.0324 0.06349,0.0653 0.0957,0.0977 0.03078,0.0311 0.06284,0.0608 0.09375,0.0918 0.0392,0.0396 0.07972,0.0778 0.11914,0.11719 0.03306,0.0334 0.06639,0.0664 0.09961,0.0996 0.04143,0.0419 0.08332,0.0833 0.125,0.125 0.04466,0.0452 0.08982,0.0898 0.134765,0.13476 0.04339,0.0439 0.0872,0.0872 0.13086,0.13086 0.05564,0.0564 0.111889,0.11199 0.167969,0.16797 0.05467,0.0554 0.108966,0.11104 0.164062,0.16601 0.06305,0.0639 0.12779,0.12609 0.191406,0.18946 0.05241,0.053 0.105404,0.10551 0.158203,0.1582 0.06914,0.0702 0.139159,0.13941 0.208985,0.20899 0.06851,0.0695 0.137846,0.13813 0.207031,0.20703 0.07626,0.0774 0.15533,0.15187 0.232422,0.22851 0.07179,0.0728 0.14427,0.14466 0.216797,0.2168 0.07818,0.0794 0.157273,0.15773 0.236328,0.23633 0.08203,0.0833 0.165052,0.16557 0.248047,0.24804 0.08459,0.086 0.170244,0.17081 0.255859,0.25586 0.08455,0.086 0.170284,0.17079 0.25586,0.25586 0.100626,0.10248 0.202603,0.2035 0.304687,0.30469 0.09197,0.0935 0.186108,0.18492 0.279297,0.27734 0.09871,0.10048 0.198714,0.19959 0.298828,0.29883 0.102559,0.10444 0.206474,0.20744 0.310547,0.31055 0.105448,0.10742 0.213263,0.21235 0.320312,0.31836 0.108327,0.1104 0.218108,0.21921 0.328125,0.32812 0.108584,0.11074 0.217842,0.22084 0.328125,0.33008 0.119159,0.1217 0.240119,0.24144 0.361329,0.36133 0.124013,0.12659 0.25072,0.25037 0.376953,0.375 0.119266,0.12164 0.240011,0.2415 0.361328,0.36133 0.121053,0.12363 0.244019,0.24542 0.367187,0.36719 0.137707,0.14086 0.27752,0.27951 0.417969,0.41796 0.12464,0.12727 0.252024,0.25166 0.378906,0.37696 0.143454,0.14686 0.289115,0.29131 0.435547,0.43554 0.135876,0.13888 0.273565,0.27559 0.41211,0.41211 0.139004,0.14227 0.280074,0.28207 0.421874,0.42188 0.153634,0.15747 0.309744,0.31233 0.466797,0.4668 0.146715,0.15013 0.295485,0.29791 0.445313,0.44531 0.152363,0.1561 0.307165,0.30975 0.46289,0.46289 0.152064,0.15588 0.307477,0.30801 0.462891,0.46094 0.133974,0.13755 0.267714,0.27489 0.404297,0.41015 -0.135473,-0.0165 -0.270571,-0.036 -0.40625,-0.0508 -7.066681,-1.00554 -14.266691,0.3804 -20.455078,3.9375 l 0.0039,0.002 c -0.0038,0.003 -0.0079,0.004 -0.01172,0.008 0.0023,7.8563 2.884935,15.30114 7.902344,21.04492 0.440547,0.50432 0.898132,0.9935 1.371094,1.4707 0.01398,0.0141 0.02701,0.0289 0.04102,0.043 0.0023,0.002 0.0036,0.006 0.0059,0.008 0.0201,0.0203 0.04039,0.0403 0.06055,0.0606 0.0094,0.009 0.01988,0.0179 0.0293,0.0273 0.01687,0.017 0.03387,0.0338 0.05078,0.0508 0.02076,0.0209 0.04168,0.0416 0.0625,0.0625 0.02397,0.0242 0.04821,0.0482 0.07227,0.0723 0.02269,0.0229 0.0456,0.0474 0.06836,0.0703 0.0408,0.0412 0.08201,0.082 0.123047,0.12305 0.02949,0.0298 0.06023,0.0582 0.08984,0.0879 0.03756,0.0379 0.07552,0.0755 0.113282,0.11328 0.04146,0.0419 0.08329,0.0833 0.125,0.125 0.04469,0.0452 0.08979,0.0898 0.134765,0.13477 0.04337,0.0439 0.08722,0.0872 0.13086,0.13086 0.06015,0.0609 0.120972,0.12115 0.18164,0.18164 0.05016,0.0507 0.101824,0.1 0.152344,0.15039 0.05822,0.059 0.117078,0.11723 0.175781,0.17578 0.06146,0.0623 0.123546,0.12374 0.185547,0.18555 0.06498,0.0659 0.131677,0.12996 0.197266,0.19531 0.06853,0.0695 0.137827,0.13811 0.207031,0.20703 0.0724,0.0735 0.145601,0.14594 0.21875,0.21875 0.07494,0.076 0.15082,0.15121 0.226563,0.22656 0.07885,0.0801 0.158543,0.159 0.238281,0.23828 0.08203,0.0833 0.165052,0.16557 0.248047,0.24805 0.08523,0.0866 0.171538,0.17212 0.257812,0.25781 0.08847,0.0899 0.177981,0.17862 0.267578,0.26758 0.09262,0.0942 0.187393,0.18617 0.28125,0.2793 0.09491,0.0966 0.190909,0.19169 0.28711,0.28711 0.09935,0.10114 0.200012,0.20089 0.300781,0.30078 0.102559,0.10444 0.206474,0.20744 0.310547,0.31055 0.105448,0.10742 0.213263,0.21234 0.320312,0.31836 0.10897,0.11106 0.219397,0.22052 0.330079,0.33007 0.107374,0.10949 0.215182,0.21815 0.324218,0.32617 0.124619,0.1273 0.252045,0.25165 0.378906,0.37696 0.115404,0.11766 0.232289,0.23365 0.34961,0.34961 0.123034,0.12561 0.247829,0.24936 0.373047,0.37304 0.124951,0.12761 0.251701,0.25328 0.378906,0.37891 0.130051,0.13291 0.262037,0.26377 0.394531,0.39453 0.131693,0.13461 0.266192,0.26603 0.400391,0.39844 0.136427,0.13953 0.274944,0.27689 0.414062,0.41406 0.139573,0.1428 0.281438,0.28351 0.423829,0.42383 0.142116,0.14545 0.286602,0.28876 0.43164,0.43164 0.146616,0.15014 0.295585,0.29791 0.445313,0.44531 0.149753,0.1534 0.302076,0.30453 0.455078,0.45508 0.153633,0.15743 0.309744,0.31237 0.466797,0.4668 0.15036,0.1541 0.303394,0.30581 0.457031,0.45703 0.167588,0.1721 0.338099,0.34125 0.509765,0.50976 0.159056,0.16306 0.321655,0.32262 0.484376,0.48243 0.161845,0.16616 0.326538,0.32938 0.492187,0.49218 0.178388,0.18344 0.359954,0.36361 0.542969,0.54297 0.169192,0.17363 0.34228,0.3437 0.515625,0.51368 0.177154,0.18207 0.357347,0.36101 0.539062,0.53906 0.179061,0.18407 0.361201,0.36496 0.544922,0.54492 0.182843,0.18805 0.368936,0.37287 0.556641,0.55664 0.18627,0.19167 0.37704,0.37919 0.568359,0.56641 0.189831,0.19542 0.383049,0.38732 0.578125,0.57812 0.192344,0.19808 0.388206,0.3926 0.585938,0.58594 0.196142,0.20212 0.395906,0.40047 0.597656,0.59765 0.195447,0.2015 0.394686,0.39913 0.595703,0.59571 0.211923,0.21882 0.428002,0.43343 0.646484,0.64648 0.201645,0.2078 0.407665,0.4107 0.615235,0.61328 0.209703,0.21646 0.422548,0.42982 0.638672,0.64063 0.209331,0.21617 0.422937,0.42813 0.638672,0.63867 0.224851,0.23253 0.455251,0.45953 0.6875,0.68555 0.216433,0.22341 0.436885,0.44277 0.660156,0.66015 0.221738,0.22919 0.448807,0.45292 0.677734,0.67579 0.227397,0.23523 0.458395,0.46676 0.69336,0.69531 0.225765,0.23357 0.456227,0.46246 0.689453,0.68945 0.239003,0.24762 0.483092,0.49022 0.730468,0.73047 0.233073,0.24116 0.471868,0.47678 0.712891,0.71094 0.240594,0.24928 0.487249,0.49257 0.736328,0.73437 0.238116,0.24677 0.480133,0.48908 0.726563,0.72852 0.249922,0.25946 0.504572,0.51425 0.763671,0.76562 0.254455,0.26399 0.515341,0.52174 0.779297,0.77735 0.248285,0.25738 0.502442,0.5084 0.759766,0.75781 0.257218,0.26707 0.520171,0.52859 0.787109,0.78711 0.261034,0.27108 0.527783,0.53658 0.798828,0.79883 0.260301,0.27032 0.526619,0.53533 0.796876,0.79687 0.267241,0.27782 0.540611,0.5498 0.818359,0.81836 0.175388,0.18236 0.356988,0.35907 0.537109,0.53711 H 172 v -67.20117 c -0.21069,-0.21169 -0.41547,-0.42865 -0.63281,-0.63477 -0.37668,-0.39697 -0.76426,-0.78384 -1.16211,-1.16211 -0.38345,-0.40476 -0.77816,-0.79823 -1.1836,-1.18359 -0.38053,-0.40119 -0.77167,-0.79173 -1.17382,-1.17383 -0.36843,-0.38795 -0.7461,-0.766642 -1.13477,-1.13672 -0.3787,-0.399229 -0.76981,-0.787644 -1.16992,-1.167968 -0.35973,-0.378246 -0.72843,-0.748136 -1.10742,-1.109375 -0.36718,-0.386752 -0.74552,-0.76381 -1.13282,-1.132813 -0.36614,-0.385194 -0.74279,-0.761346 -1.1289,-1.128906 -0.35332,-0.371022 -0.71602,-0.733256 -1.08789,-1.087891 -0.35643,-0.374628 -0.72233,-0.739718 -1.09766,-1.097656 -0.34666,-0.364038 -0.70187,-0.72009 -1.0664,-1.068359 -0.35254,-0.370514 -0.71492,-0.731746 -1.08594,-1.085938 -0.34323,-0.360114 -0.69592,-0.711972 -1.05664,-1.05664 -0.34133,-0.358123 -0.69215,-0.707932 -1.05078,-1.050782 -0.3417,-0.358383 -0.69176,-0.709655 -1.05079,-1.052734 -0.32883,-0.34443 -0.66685,-0.679485 -1.01171,-1.009766 -0.33813,-0.354647 -0.68396,-0.70135 -1.03907,-1.041015 -0.32231,-0.337307 -0.65253,-0.666508 -0.99023,-0.990235 -0.33141,-0.34726 -0.67184,-0.686648 -1.01953,-1.019531 -0.31898,-0.333525 -0.64644,-0.65828 -0.98047,-0.978515 -0.32018,-0.334926 -0.64707,-0.662845 -0.98242,-0.984376 -0.31067,-0.324719 -0.62818,-0.642957 -0.95313,-0.955078 -0.3154,-0.32995 -0.63862,-0.651795 -0.96875,-0.96875 -0.30843,-0.322212 -0.62477,-0.637464 -0.94726,-0.947265 -0.30563,-0.319165 -0.61808,-0.632468 -0.9375,-0.939453 -0.3024,-0.315661 -0.61183,-0.623993 -0.92774,-0.927735 -0.29846,-0.31139 -0.6044,-0.616229 -0.91601,-0.916015 -0.29598,-0.308687 -0.59931,-0.610922 -0.90821,-0.908204 -0.29224,-0.304637 -0.59164,-0.602962 -0.89648,-0.896484 -0.28932,-0.301484 -0.58506,-0.596124 -0.88672,-0.886719 -0.28706,-0.298979 -0.5797,-0.592595 -0.87891,-0.880859 -0.28272,-0.29423 -0.57269,-0.58139 -0.86718,-0.865234 -0.2778,-0.288974 -0.56047,-0.57261 -0.84961,-0.851563 -0.28079,-0.292064 -0.56895,-0.577551 -0.86133,-0.859375 -0.26426,-0.274393 -0.53409,-0.543251 -0.80859,-0.808594 -0.27253,-0.283486 -0.55054,-0.562091 -0.83399,-0.835937 -0.26618,-0.27654 -0.53786,-0.547098 -0.81445,-0.814453 -0.26256,-0.272633 -0.53005,-0.540987 -0.80274,-0.804688 -0.2591,-0.26893 -0.524,-0.532733 -0.79297,-0.792968 -0.25978,-0.269543 -0.52523,-0.534119 -0.79492,-0.794922 -0.24579,-0.254657 -0.4973,-0.503152 -0.75195,-0.75 -0.25295,-0.262471 -0.50915,-0.521202 -0.77148,-0.775391 -0.2509,-0.259965 -0.50748,-0.5138 -0.76758,-0.765625 -0.23474,-0.242814 -0.47401,-0.481094 -0.7168,-0.716797 -0.24322,-0.252049 -0.4903,-0.499737 -0.74219,-0.744141 -0.23605,-0.244258 -0.4765,-0.483637 -0.7207,-0.720703 -0.2329,-0.240915 -0.4701,-0.477021 -0.71094,-0.710937 -0.23343,-0.241343 -0.47149,-0.478577 -0.71289,-0.712891 -0.22257,-0.229777 -0.44989,-0.454336 -0.67969,-0.677734 -0.21898,-0.226215 -0.44002,-0.449884 -0.66601,-0.669922 -0.22324,-0.230743 -0.45112,-0.457321 -0.68164,-0.681641 -0.21652,-0.223483 -0.4368,-0.442707 -0.66016,-0.660156 -0.21274,-0.219468 -0.4291,-0.43479 -0.64844,-0.648437 -0.21469,-0.221407 -0.43288,-0.438818 -0.65429,-0.654297 -0.19752,-0.203327 -0.39837,-0.403243 -0.60157,-0.601563 -0.20667,-0.213175 -0.416,-0.423176 -0.6289,-0.630859 -0.20362,-0.20972 -0.41144,-0.414747 -0.6211,-0.619141 -0.18838,-0.19373 -0.37872,-0.385038 -0.57226,-0.574219 -0.19675,-0.202672 -0.39723,-0.401907 -0.59961,-0.599609 -0.18922,-0.194611 -0.38175,-0.386151 -0.57617,-0.576172 -0.18636,-0.191606 -0.37501,-0.381204 -0.56641,-0.568359 -0.18299,-0.188063 -0.36878,-0.372868 -0.55664,-0.556641 -0.18419,-0.189195 -0.37143,-0.375697 -0.56055,-0.560547 -0.1674,-0.171672 -0.3383,-0.339722 -0.50976,-0.507812 -0.17682,-0.181675 -0.35575,-0.361391 -0.53711,-0.539063 -0.16968,-0.174082 -0.34177,-0.345224 -0.51563,-0.515625 -0.16607,-0.170291 -0.33384,-0.339093 -0.5039,-0.505859 -0.16257,-0.166627 -0.32775,-0.330889 -0.49414,-0.494141 -0.1595,-0.163425 -0.3212,-0.324198 -0.48438,-0.484375 -0.15558,-0.159327 -0.31357,-0.316417 -0.47265,-0.472656 -0.15305,-0.156672 -0.30842,-0.31116 -0.46485,-0.464844 -0.14923,-0.152689 -0.30067,-0.303274 -0.45312,-0.453125 -0.14615,-0.149482 -0.29413,-0.296599 -0.44336,-0.443359 -0.14254,-0.145719 -0.28617,-0.290463 -0.43164,-0.433594 -0.13903,-0.142065 -0.28006,-0.28227 -0.42188,-0.421875 -0.14102,-0.144056 -0.28384,-0.28621 -0.42773,-0.427734 -0.12349,-0.125916 -0.24932,-0.249068 -0.375,-0.373047 -0.13753,-0.140527 -0.27576,-0.27985 -0.41602,-0.417969 -0.1174,-0.11963 -0.23608,-0.237587 -0.35547,-0.355468 -0.12656,-0.129192 -0.25394,-0.257611 -0.38281,-0.384766 -0.11932,-0.12162 -0.23996,-0.241515 -0.36133,-0.361328 -0.11999,-0.12224 -0.24122,-0.242868 -0.36328,-0.363282 -0.10331,-0.105075 -0.20766,-0.208776 -0.3125,-0.3125 -0.11346,-0.11563 -0.22843,-0.229751 -0.34375,-0.34375 -0.10488,-0.1067 -0.20994,-0.213053 -0.31641,-0.318359 -0.10259,-0.104348 -0.20644,-0.207532 -0.31054,-0.310547 -0.10326,-0.104969 -0.20771,-0.208881 -0.3125,-0.3125 -0.0866,-0.08791 -0.17403,-0.174758 -0.26172,-0.261718 -0.10074,-0.102445 -0.20249,-0.203529 -0.30469,-0.304688 -0.0796,-0.08067 -0.15977,-0.160366 -0.24023,-0.240234 -0.0943,-0.09578 -0.18962,-0.190501 -0.28516,-0.285157 -0.077,-0.07798 -0.1546,-0.155187 -0.23242,-0.232421 -0.0741,-0.0751 -0.14781,-0.150202 -0.22266,-0.22461 -0.0795,-0.08065 -0.15985,-0.160382 -0.24023,-0.240234 -0.0718,-0.07278 -0.14423,-0.144669 -0.2168,-0.216797 -0.0683,-0.06915 -0.13612,-0.13847 -0.20508,-0.207031 -0.0692,-0.0701 -0.13904,-0.139491 -0.20898,-0.208985 -0.0522,-0.05271 -0.10566,-0.103885 -0.1582,-0.15625 -0.0625,-0.06327 -0.12447,-0.12668 -0.1875,-0.189453 -0.0547,-0.05534 -0.1089,-0.111055 -0.16407,-0.166016 -0.0512,-0.05172 -0.10274,-0.102908 -0.15429,-0.154296 -0.0525,-0.05297 -0.10537,-0.105583 -0.15821,-0.158204 -0.0399,-0.04021 -0.081,-0.07913 -0.12109,-0.11914 -0.036,-0.03632 -0.0712,-0.07321 -0.10742,-0.109375 -0.0424,-0.04285 -0.0843,-0.08628 -0.12695,-0.128906 -0.0341,-0.03434 -0.0693,-0.06737 -0.10352,-0.101563 -0.0308,-0.03107 -0.0608,-0.0628 -0.0918,-0.09375 -0.0273,-0.02746 -0.0547,-0.05467 -0.082,-0.08203 -0.0285,-0.02873 -0.0573,-0.05731 -0.0859,-0.08594 -0.0159,-0.01599 -0.0329,-0.03093 -0.0488,-0.04687 -0.012,-0.0121 -0.0231,-0.02503 -0.0352,-0.03711 -0.0185,-0.01862 -0.0361,-0.03806 -0.0547,-0.05664 -0.0104,-0.01044 -0.0209,-0.02082 -0.0312,-0.03125 -0.004,-0.0039 -0.008,-0.0078 -0.0117,-0.01172 -0.005,-0.0052 -0.0104,-0.01042 -0.0156,-0.01563 -0.48566,-0.487454 -0.98734,-0.95894 -1.50586,-1.416016 -0.005,-0.0046 -0.0104,-0.0091 -0.0156,-0.01367 -1.560682,-1.373952 -3.269167,-2.605038 -5.107418,-3.669922 v -0.002 c -0.0079,-0.0046 -0.01557,-0.0091 -0.02344,-0.01367 l -0.002,-0.0098 v -0.002 c -0.0026,0.0019 -0.0052,0.0036 -0.0078,0.0059 -0.002,-0.0012 -0.0038,-0.0027 -0.0059,-0.0039 z"
         style="display:inline;opacity:0.1;fill:url(#linearGradient6007);fill-opacity:1;stroke-width:0.39684403" />
    </g>
    <g
       id="g6110"
       inkscape:label="Circle"
       style="display:inline">
      <circle
         id="background-circle"
         cx="25.4"
         cy="271.60001"
         style="display:inline;fill:#00897b;fill-opacity:1;stroke-width:0.56264174;filter:url(#filter4769)"
         r="23.283333"
         inkscape:label="Background"
         sodipodi:insensitive="true" />
      <path
         inkscape:label="Long Shadow"
         inkscape:connector-curvature="0"
         id="long-shadow-circle"
         transform="matrix(0.26458333,0,0,0.26458333,0,246.20001)"
         d="m 96.003906,30.298828 c -0.0033,0.0025 -0.0064,0.004 -0.0098,0.0078 -9.884312,5.711471 -15.977664,16.256114 -15.990235,27.671875 10e-4,0.491792 0.0133,0.983422 0.03711,1.474609 0.05004,1.062425 0.153028,2.121683 0.308593,3.173828 6.66e-4,0.0038 0.0013,0.0079 0.002,0.01172 0.156247,1.052069 0.364837,2.095671 0.625,3.126953 0.119661,0.421228 0.247943,0.839922 0.384766,1.255859 0.16766,0.608882 0.353272,1.212664 0.556641,1.810547 0.726788,2.007307 1.652627,3.936862 2.763672,5.759766 0.832337,1.36542 1.767166,2.665833 2.792968,3.890625 0.0044,0.0053 0.0092,0.01032 0.01367,0.01563 0.01215,0.0145 0.02494,0.02849 0.03711,0.04297 0.326284,0.387665 0.659262,0.768561 1.003906,1.140625 0.0017,0.0017 0.0041,0.0042 0.0059,0.0059 9.04e-4,8.52e-4 0.003,6.16e-4 0.0039,0.002 0.0022,0.0024 0.0037,0.0054 0.0059,0.0078 0.0026,0.0025 0.0052,0.004 0.0078,0.0078 0.0062,0.0062 0.01326,0.01146 0.01953,0.01758 0.0026,0.0025 0.0052,0.004 0.0078,0.0078 l 0.0098,0.0098 c 0.0023,0.0022 0.0035,0.0056 0.0059,0.0078 0.0037,0.0041 0.008,0.0077 0.01172,0.01172 0.0026,0.0025 0.0052,0.0021 0.0078,0.0059 0.002,0.0019 0.0039,0.0039 0.0059,0.0059 0.01066,0.01145 0.02252,0.02177 0.0332,0.0332 0.0026,0.0025 0.0052,0.004 0.0078,0.0078 0.0046,0.0045 0.009,0.0092 0.01367,0.01367 0.01069,0.01143 0.0225,0.02179 0.0332,0.0332 l 0.002,0.002 c 0.02174,0.02316 0.0446,0.04527 0.06641,0.06836 0.0026,0.0025 0.0052,0.004 0.0078,0.0078 0.304239,0.321613 0.610648,0.640726 0.927735,0.949219 0.0059,0.0058 0.01164,0.0118 0.01758,0.01758 0.0096,0.0093 0.01972,0.01803 0.0293,0.02734 0.01285,0.01253 0.02424,0.02655 0.03711,0.03906 0.01647,0.01608 0.03233,0.03279 0.04883,0.04883 0.01975,0.0193 0.03879,0.03935 0.05859,0.05859 0.02402,0.02349 0.04816,0.0469 0.07227,0.07031 0.026,0.02543 0.05009,0.05279 0.07617,0.07812 0.03126,0.0306 0.06237,0.06133 0.09375,0.0918 0.0329,0.03222 0.06462,0.06558 0.09766,0.09766 0.03812,0.03738 0.07498,0.07609 0.113281,0.113281 0.0401,0.03934 0.07883,0.08002 0.11914,0.119141 0.04403,0.04322 0.08659,0.08789 0.13086,0.130859 0.04797,0.04713 0.09431,0.09575 0.142578,0.142578 0.0509,0.05004 0.101112,0.100694 0.152344,0.150391 0.05482,0.05394 0.106903,0.110524 0.162109,0.164062 0.05774,0.05685 0.113707,0.115475 0.171875,0.171875 0.06134,0.06043 0.121771,0.121711 0.183594,0.181641 0.06525,0.06433 0.127572,0.131556 0.193359,0.195312 0.0672,0.06629 0.133395,0.13353 0.201172,0.199219 0.07078,0.06989 0.139521,0.14172 0.210938,0.210937 0.07791,0.07701 0.153737,0.156228 0.232421,0.232422 0.07698,0.07608 0.152733,0.153233 0.230469,0.228516 0.08085,0.08 0.158543,0.163066 0.240235,0.242188 0.08698,0.08616 0.171814,0.174626 0.259765,0.259765 0.08832,0.0875 0.174351,0.177223 0.263672,0.263672 0.0932,0.09241 0.184984,0.186102 0.279297,0.277344 0.09351,0.09276 0.184664,0.187714 0.279297,0.279297 0.06625,0.06581 0.128492,0.135948 0.195312,0.201172 V 90.78922 C 93.886875,90.670037 93.769647,90.54906 93.648629,90.431799 93.517253,90.300075 93.387718,90.166651 93.254097,90.037267 93.139181,89.922234 93.025026,89.806763 92.908394,89.693517 92.781593,89.566345 92.658383,89.435697 92.529488,89.310705 92.411979,89.193116 92.295275,89.074862 92.175972,88.959142 92.056797,88.839959 91.939569,88.718984 91.81855,88.60172 91.714947,88.498317 91.612998,88.393127 91.508003,88.291174 91.400514,88.18376 91.294726,88.07476 91.185738,87.968908 91.080167,87.863484 90.976347,87.75642 90.869332,87.652502 90.76896,87.552375 90.670226,87.450488 90.56855,87.35172 c -0.09167,-0.09139 -0.180676,-0.185135 -0.273437,-0.27539 -0.09975,-0.09952 -0.197792,-0.200648 -0.298828,-0.298828 -0.09563,-0.0952 -0.190301,-0.19119 -0.28711,-0.285156 -0.08066,-0.08013 -0.158739,-0.162936 -0.240234,-0.242188 -0.08361,-0.08315 -0.165486,-0.167796 -0.25,-0.25 -0.08006,-0.07956 -0.159348,-0.159587 -0.240234,-0.238281 -0.07087,-0.07038 -0.139423,-0.143188 -0.210938,-0.212891 -0.07936,-0.07888 -0.156158,-0.16025 -0.236328,-0.238281 -0.06997,-0.06938 -0.138388,-0.140259 -0.208984,-0.208985 -0.07195,-0.0713 -0.142229,-0.144238 -0.214844,-0.214843 -0.05109,-0.05052 -0.100916,-0.102171 -0.152344,-0.152344 -0.0654,-0.06483 -0.12936,-0.131052 -0.195312,-0.195313 -0.05597,-0.05536 -0.109641,-0.113026 -0.166016,-0.167968 -0.05796,-0.05729 -0.115438,-0.115033 -0.173828,-0.171875 -0.03769,-0.03718 -0.07346,-0.07629 -0.111328,-0.113281 -0.05206,-0.05148 -0.103842,-0.103181 -0.15625,-0.154297 -0.04852,-0.04787 -0.09571,-0.09698 -0.144532,-0.144532 -0.02624,-0.02583 -0.05179,-0.05239 -0.07812,-0.07813 -0.04162,-0.04108 -0.0812,-0.08416 -0.123047,-0.125 -0.0315,-0.03101 -0.06212,-0.06287 -0.09375,-0.09375 -0.03513,-0.03457 -0.07019,-0.06911 -0.105469,-0.103515 -0.01149,-0.01128 -0.0217,-0.02389 -0.0332,-0.03516 l -0.002,-0.002 c -0.02822,-0.02778 -0.05567,-0.05631 -0.08398,-0.08398 -0.02234,-0.02194 -0.044,-0.04453 -0.06641,-0.06641 -0.0066,-0.0064 -0.01294,-0.01311 -0.01953,-0.01953 -0.002,-0.0019 -0.0039,-0.0039 -0.0059,-0.0059 -0.01018,-0.01001 -0.01911,-0.02125 -0.0293,-0.03125 -0.0086,-0.0084 -0.01683,-0.01703 -0.02539,-0.02539 -0.0053,-0.0051 -0.01036,-0.01047 -0.01563,-0.01563 -0.375392,-0.367339 -0.761404,-0.723949 -1.154297,-1.072265 -1.599106,-1.417673 -3.338399,-2.67611 -5.197266,-3.751953 -2.278227,-1.310967 -4.709301,-2.336287 -7.238281,-3.052735 -1.023284,-0.289889 -2.060379,-0.528324 -3.107422,-0.714843 -0.0033,-6.43e-4 -0.0064,-0.0013 -0.0098,-0.002 -0.382549,-0.05556 -0.766077,-0.104531 -1.150391,-0.146484 -7.066677,-1.005581 -14.266687,0.380435 -20.455078,3.9375 l 0.0039,0.002 c -0.0038,0.0025 -0.0079,0.004 -0.01172,0.0078 0.0023,7.856296 2.884941,15.301144 7.902344,21.044922 0.450853,0.516123 0.917554,1.020116 1.402344,1.507816 0.0026,0.003 0.0052,0.005 0.0078,0.008 0.0071,0.007 0.01436,0.0143 0.02148,0.0215 0.01523,0.0153 0.03162,0.0296 0.04687,0.0449 0.0068,0.007 0.01467,0.0127 0.02148,0.0195 0.0026,0.003 0.0052,0.005 0.0078,0.008 0.01686,0.017 0.03388,0.0338 0.05078,0.0508 0.02074,0.0209 0.04169,0.0416 0.0625,0.0625 0.01946,0.0196 0.03908,0.039 0.05859,0.0586 0.03207,0.0324 0.06349,0.0653 0.0957,0.0977 0.03078,0.0311 0.06284,0.0608 0.09375,0.0918 0.0392,0.0396 0.07972,0.0778 0.11914,0.11719 0.03306,0.0334 0.06639,0.0664 0.09961,0.0996 0.04143,0.0419 0.08332,0.0833 0.125,0.125 0.04466,0.0452 0.08982,0.0898 0.134765,0.13476 0.04339,0.0439 0.0872,0.0872 0.13086,0.13086 0.05564,0.0564 0.111889,0.11199 0.167969,0.16797 0.05467,0.0554 0.108966,0.11104 0.164062,0.16601 0.06305,0.0639 0.12779,0.12609 0.191406,0.18946 0.05241,0.053 0.105404,0.10551 0.158203,0.1582 0.06914,0.0702 0.139159,0.13941 0.208985,0.20899 0.06851,0.0695 0.137846,0.13813 0.207031,0.20703 0.07626,0.0774 0.15533,0.15187 0.232422,0.22851 0.07179,0.0728 0.14427,0.14466 0.216797,0.2168 0.07818,0.0794 0.157273,0.15773 0.236328,0.23633 0.08203,0.0833 0.165052,0.16557 0.248047,0.24804 0.08459,0.086 0.170244,0.17081 0.255859,0.25586 0.08455,0.086 0.170284,0.17079 0.25586,0.25586 0.100626,0.10248 0.202603,0.2035 0.304687,0.30469 0.09197,0.0935 0.186108,0.18492 0.279297,0.27734 0.09871,0.10048 0.198714,0.19959 0.298828,0.29883 0.102559,0.10444 0.206474,0.20744 0.310547,0.31055 0.105448,0.10742 0.213263,0.21235 0.320312,0.31836 0.108327,0.1104 0.218108,0.21921 0.328125,0.32812 0.108584,0.11074 0.217842,0.22084 0.328125,0.33008 0.119159,0.1217 0.240119,0.24144 0.361329,0.36133 0.124013,0.12659 0.25072,0.25037 0.376953,0.375 0.119266,0.12164 0.240011,0.2415 0.361328,0.36133 0.121053,0.12363 0.244019,0.24542 0.367187,0.36719 0.137707,0.14086 0.27752,0.27951 0.417969,0.41796 0.12464,0.12727 0.252024,0.25166 0.378906,0.37696 0.143454,0.14686 0.289115,0.29131 0.435547,0.43554 0.135876,0.13888 0.273565,0.27559 0.41211,0.41211 0.139004,0.14227 0.280074,0.28207 0.421874,0.42188 0.153634,0.15747 0.309744,0.31233 0.466797,0.4668 0.146715,0.15013 0.295485,0.29791 0.445313,0.44531 0.152363,0.1561 0.307165,0.30975 0.46289,0.46289 0.152064,0.15588 0.307477,0.30801 0.462891,0.46094 0.133974,0.13755 0.267714,0.27489 0.404297,0.41015 -0.135473,-0.0165 -0.270571,-0.036 -0.40625,-0.0508 -7.066681,-1.00554 -14.266691,0.3804 -20.455078,3.9375 l 0.0039,0.002 c -0.0038,0.003 -0.0079,0.004 -0.01172,0.008 0.0023,7.8563 2.884935,15.30114 7.902344,21.04492 0.440547,0.50432 0.898132,0.9935 1.371094,1.4707 0.01398,0.0141 0.02701,0.0289 0.04102,0.043 0.0023,0.002 0.0036,0.006 0.0059,0.008 0.0201,0.0203 0.04039,0.0403 0.06055,0.0606 0.0094,0.009 0.01988,0.0179 0.0293,0.0273 0.01687,0.017 0.03387,0.0338 0.05078,0.0508 0.02076,0.0209 0.04168,0.0416 0.0625,0.0625 0.02397,0.0242 0.04821,0.0482 0.07227,0.0723 0.02269,0.0229 0.0456,0.0474 0.06836,0.0703 0.0408,0.0412 0.08201,0.082 0.123047,0.12305 0.02949,0.0298 0.06023,0.0582 0.08984,0.0879 0.03756,0.0379 0.07552,0.0755 0.113282,0.11328 0.04146,0.0419 0.08329,0.0833 0.125,0.125 0.04469,0.0452 0.08979,0.0898 0.134765,0.13477 0.04337,0.0439 0.08722,0.0872 0.13086,0.13086 0.06015,0.0609 0.120972,0.12115 0.18164,0.18164 0.05016,0.0507 0.101824,0.1 0.152344,0.15039 0.05822,0.059 0.117078,0.11723 0.175781,0.17578 0.06146,0.0623 0.123546,0.12374 0.185547,0.18555 0.06498,0.0659 0.131677,0.12996 0.197266,0.19531 0.06853,0.0695 0.137827,0.13811 0.207031,0.20703 0.0724,0.0735 0.145601,0.14594 0.21875,0.21875 0.07494,0.076 0.15082,0.15121 0.226563,0.22656 0.07885,0.0801 0.158543,0.159 0.238281,0.23828 0.08203,0.0833 0.165052,0.16557 0.248047,0.24805 0.08523,0.0866 0.171538,0.17212 0.257812,0.25781 0.08847,0.0899 0.177981,0.17862 0.267578,0.26758 0.09262,0.0942 0.187393,0.18617 0.28125,0.2793 0.09491,0.0966 0.190909,0.19169 0.28711,0.28711 0.09935,0.10114 0.200012,0.20089 0.300781,0.30078 0.102559,0.10444 0.206474,0.20744 0.310547,0.31055 0.105448,0.10742 0.213263,0.21234 0.320312,0.31836 0.10897,0.11106 0.219397,0.22052 0.330079,0.33007 0.107374,0.10949 0.215182,0.21815 0.324218,0.32617 0.124619,0.1273 0.252045,0.25165 0.378906,0.37696 0.115404,0.11766 0.232289,0.23365 0.34961,0.34961 0.123034,0.12561 0.247829,0.24936 0.373047,0.37304 0.124951,0.12761 0.251701,0.25328 0.378906,0.37891 0.130051,0.13291 0.262037,0.26377 0.394531,0.39453 0.131693,0.13461 0.266192,0.26603 0.400391,0.39844 0.136427,0.13953 0.274944,0.27689 0.414062,0.41406 0.139573,0.1428 0.281438,0.28351 0.423829,0.42383 0.142116,0.14545 0.286602,0.28876 0.43164,0.43164 0.146616,0.15014 0.295585,0.29791 0.445313,0.44531 0.149753,0.1534 0.302076,0.30453 0.455078,0.45508 0.153633,0.15743 0.309744,0.31237 0.466797,0.4668 0.15036,0.1541 0.303394,0.30581 0.457031,0.45703 0.167588,0.1721 0.338099,0.34125 0.509765,0.50976 0.159056,0.16306 0.321655,0.32262 0.484376,0.48243 0.161845,0.16616 0.326538,0.32938 0.492187,0.49218 0.178388,0.18344 0.359954,0.36361 0.542969,0.54297 0.169192,0.17363 0.34228,0.3437 0.515625,0.51368 0.177154,0.18207 0.357347,0.36101 0.539062,0.53906 0.179061,0.18407 0.361201,0.36496 0.544922,0.54492 0.182843,0.18805 0.368936,0.37287 0.556641,0.55664 0.18627,0.19167 0.37704,0.37919 0.568359,0.56641 0.189831,0.19542 0.383049,0.38732 0.578125,0.57812 0.192344,0.19808 0.388206,0.3926 0.585938,0.58594 0.196142,0.20212 0.395906,0.40047 0.597656,0.59765 0.195447,0.2015 0.394686,0.39913 0.595703,0.59571 0.211923,0.21882 0.428002,0.43343 0.646484,0.64648 0.201645,0.2078 0.407665,0.4107 0.615235,0.61328 0.209703,0.21646 0.422548,0.42982 0.638672,0.64063 0.209331,0.21617 0.422937,0.42813 0.638672,0.63867 0.224851,0.23253 0.455251,0.45953 0.6875,0.68555 0.216433,0.22341 0.436885,0.44277 0.660156,0.66015 0.221738,0.22919 0.448807,0.45292 0.677734,0.67579 0.227397,0.23523 0.458395,0.46676 0.69336,0.69531 0.225765,0.23357 0.456227,0.46246 0.689453,0.68945 0.239003,0.24762 0.483092,0.49022 0.730468,0.73047 0.233073,0.24116 0.471868,0.47678 0.712891,0.71094 0.240594,0.24928 0.487249,0.49257 0.736328,0.73437 0.238116,0.24677 0.480133,0.48908 0.726563,0.72852 0.249922,0.25946 0.504572,0.51425 0.763671,0.76562 0.254455,0.26399 0.515341,0.52174 0.779297,0.77735 0.248285,0.25738 0.502442,0.5084 0.759766,0.75781 0.257218,0.26707 0.520171,0.52859 0.787109,0.78711 0.261034,0.27108 0.527783,0.53658 0.798828,0.79883 0.260301,0.27032 0.526619,0.53533 0.796876,0.79687 0.267241,0.27782 0.540611,0.5498 0.818359,0.81836 0.271054,0.28183 0.548214,0.55778 0.830078,0.83008 0.272654,0.28349 0.552347,0.56013 0.835937,0.83398 0.269955,0.28081 0.545491,0.55678 0.826172,0.82813 0.285975,0.29809 0.578911,0.58949 0.876954,0.87695 0.279484,0.2909 0.566432,0.57471 0.857421,0.85547 0.282177,0.29408 0.571311,0.5815 0.865235,0.86523 0.297234,0.31023 0.601822,0.61339 0.912109,0.91211 0.289451,0.30156 0.58687,0.59606 0.888672,0.88672 0.297319,0.31016 0.601739,0.61346 0.912109,0.91211 0.292766,0.30541 0.593015,0.60419 0.898438,0.89844 0.309057,0.3231 0.626023,0.63858 0.949219,0.94922 0.303864,0.31721 0.616088,0.62646 0.933588,0.93164 0.30744,0.32123 0.62195,0.6364 0.94336,0.94531 0.25653,0.26826 0.52237,0.52796 0.78907,0.78711 a 88,88 0 0 0 79.67382,-69.04687 c -0.23381,-0.23541 -0.46125,-0.47648 -0.70312,-0.70508 -0.40441,-0.42787 -0.82107,-0.84377 -1.25,-1.25 -0.414,-0.43848 -0.84154,-0.86547 -1.28125,-1.28125 -0.39891,-0.42144 -0.80971,-0.83201 -1.23242,-1.23242 -0.39727,-0.42009 -0.80566,-0.8293 -1.22656,-1.22852 -0.39948,-0.42256 -0.81295,-0.83293 -1.23633,-1.23437 -0.39368,-0.41596 -0.79798,-0.82132 -1.21485,-1.2168 -0.3906,-0.41253 -0.7936,-0.8127 -1.20703,-1.20508 -0.39196,-0.41379 -0.79406,-0.81745 -1.20898,-1.21094 -0.37668,-0.39697 -0.76426,-0.78384 -1.16211,-1.16211 -0.38345,-0.40476 -0.77816,-0.79823 -1.1836,-1.18359 -0.38053,-0.40119 -0.77167,-0.79173 -1.17382,-1.17383 -0.36843,-0.38795 -0.7461,-0.766642 -1.13477,-1.13672 -0.3787,-0.399229 -0.76981,-0.787644 -1.16992,-1.167968 -0.35973,-0.378246 -0.72843,-0.748136 -1.10742,-1.109375 -0.36718,-0.386752 -0.74552,-0.76381 -1.13282,-1.132813 -0.36614,-0.385194 -0.74279,-0.761346 -1.1289,-1.128906 -0.35332,-0.371022 -0.71602,-0.733256 -1.08789,-1.087891 -0.35643,-0.374628 -0.72233,-0.739718 -1.09766,-1.097656 -0.34666,-0.364038 -0.70187,-0.72009 -1.0664,-1.068359 -0.35254,-0.370514 -0.71492,-0.731746 -1.08594,-1.085938 -0.34323,-0.360114 -0.69592,-0.711972 -1.05664,-1.05664 -0.34133,-0.358123 -0.69215,-0.707932 -1.05078,-1.050782 -0.3417,-0.358383 -0.69176,-0.709655 -1.05079,-1.052734 -0.32883,-0.34443 -0.66685,-0.679485 -1.01171,-1.009766 -0.33813,-0.354647 -0.68396,-0.70135 -1.03907,-1.041015 -0.32231,-0.337307 -0.65253,-0.666508 -0.99023,-0.990235 -0.33141,-0.34726 -0.67184,-0.686648 -1.01953,-1.019531 -0.31898,-0.333525 -0.64644,-0.65828 -0.98047,-0.978515 -0.32018,-0.334926 -0.64707,-0.662845 -0.98242,-0.984376 -0.31067,-0.324719 -0.62818,-0.642957 -0.95313,-0.955078 -0.3154,-0.32995 -0.63862,-0.651795 -0.96875,-0.96875 -0.30843,-0.322212 -0.62477,-0.637464 -0.94726,-0.947265 -0.30563,-0.319165 -0.61808,-0.632468 -0.9375,-0.939453 -0.3024,-0.315661 -0.61183,-0.623993 -0.92774,-0.927735 -0.29846,-0.31139 -0.6044,-0.616229 -0.91601,-0.916015 -0.29598,-0.308687 -0.59931,-0.610922 -0.90821,-0.908204 -0.29224,-0.304637 -0.59164,-0.602962 -0.89648,-0.896484 -0.28932,-0.301484 -0.58506,-0.596124 -0.88672,-0.886719 -0.28706,-0.298979 -0.5797,-0.592595 -0.87891,-0.880859 -0.28272,-0.29423 -0.57269,-0.58139 -0.86718,-0.865234 -0.2778,-0.288974 -0.56047,-0.57261 -0.84961,-0.851563 -0.28079,-0.292064 -0.56895,-0.577551 -0.86133,-0.859375 -0.26426,-0.274393 -0.53409,-0.543251 -0.80859,-0.808594 -0.27253,-0.283486 -0.55054,-0.562091 -0.83399,-0.835937 -0.26618,-0.27654 -0.53786,-0.547098 -0.81445,-0.814453 -0.26256,-0.272633 -0.53005,-0.540987 -0.80274,-0.804688 -0.2591,-0.26893 -0.524,-0.532733 -0.79297,-0.792968 -0.25978,-0.269543 -0.52523,-0.534119 -0.79492,-0.794922 -0.24579,-0.254657 -0.4973,-0.503152 -0.75195,-0.75 -0.25295,-0.262471 -0.50915,-0.521202 -0.77148,-0.775391 -0.2509,-0.259965 -0.50748,-0.5138 -0.76758,-0.765625 -0.23474,-0.242814 -0.47401,-0.481094 -0.7168,-0.716797 -0.24322,-0.252049 -0.4903,-0.499737 -0.74219,-0.744141 -0.23605,-0.244258 -0.4765,-0.483637 -0.7207,-0.720703 -0.2329,-0.240915 -0.4701,-0.477021 -0.71094,-0.710937 -0.23343,-0.241343 -0.47149,-0.478577 -0.71289,-0.712891 -0.22257,-0.229777 -0.44989,-0.454336 -0.67969,-0.677734 -0.21898,-0.226215 -0.44002,-0.449884 -0.66601,-0.669922 -0.22324,-0.230743 -0.45112,-0.457321 -0.68164,-0.681641 -0.21652,-0.223483 -0.4368,-0.442707 -0.66016,-0.660156 -0.21274,-0.219468 -0.4291,-0.43479 -0.64844,-0.648437 -0.21469,-0.221407 -0.43288,-0.438818 -0.65429,-0.654297 -0.19752,-0.203327 -0.39837,-0.403243 -0.60157,-0.601563 -0.20667,-0.213175 -0.416,-0.423176 -0.6289,-0.630859 -0.20362,-0.20972 -0.41144,-0.414747 -0.6211,-0.619141 -0.18838,-0.19373 -0.37872,-0.385038 -0.57226,-0.574219 -0.19675,-0.202672 -0.39723,-0.401907 -0.59961,-0.599609 -0.18922,-0.194611 -0.38175,-0.386151 -0.57617,-0.576172 -0.18636,-0.191606 -0.37501,-0.381204 -0.56641,-0.568359 -0.18299,-0.188063 -0.36878,-0.372868 -0.55664,-0.556641 -0.18419,-0.189195 -0.37143,-0.375697 -0.56055,-0.560547 -0.1674,-0.171672 -0.3383,-0.339722 -0.50976,-0.507812 -0.17682,-0.181675 -0.35575,-0.361391 -0.53711,-0.539063 -0.16968,-0.174082 -0.34177,-0.345224 -0.51563,-0.515625 -0.16607,-0.170291 -0.33384,-0.339093 -0.5039,-0.505859 -0.16257,-0.166627 -0.32775,-0.330889 -0.49414,-0.494141 -0.1595,-0.163425 -0.3212,-0.324198 -0.48438,-0.484375 -0.15558,-0.159327 -0.31357,-0.316417 -0.47265,-0.472656 -0.15305,-0.156672 -0.30842,-0.31116 -0.46485,-0.464844 -0.14923,-0.152689 -0.30067,-0.303274 -0.45312,-0.453125 -0.14615,-0.149482 -0.29413,-0.296599 -0.44336,-0.443359 -0.14254,-0.145719 -0.28617,-0.290463 -0.43164,-0.433594 -0.13903,-0.142065 -0.28006,-0.28227 -0.42188,-0.421875 -0.14102,-0.144056 -0.28384,-0.28621 -0.42773,-0.427734 -0.12349,-0.125916 -0.24932,-0.249068 -0.375,-0.373047 -0.13753,-0.140527 -0.27576,-0.27985 -0.41602,-0.417969 -0.1174,-0.11963 -0.23608,-0.237587 -0.35547,-0.355468 -0.12656,-0.129192 -0.25394,-0.257611 -0.38281,-0.384766 -0.11932,-0.12162 -0.23996,-0.241515 -0.36133,-0.361328 -0.11999,-0.12224 -0.24122,-0.242868 -0.36328,-0.363282 -0.10331,-0.105075 -0.20766,-0.208776 -0.3125,-0.3125 -0.11346,-0.11563 -0.22843,-0.229751 -0.34375,-0.34375 -0.10488,-0.1067 -0.20994,-0.213053 -0.31641,-0.318359 -0.10259,-0.104348 -0.20644,-0.207532 -0.31054,-0.310547 -0.10326,-0.104969 -0.20771,-0.208881 -0.3125,-0.3125 -0.0866,-0.08791 -0.17403,-0.174758 -0.26172,-0.261718 -0.10074,-0.102445 -0.20249,-0.203529 -0.30469,-0.304688 -0.0796,-0.08067 -0.15977,-0.160366 -0.24023,-0.240234 -0.0943,-0.09578 -0.18962,-0.190501 -0.28516,-0.285157 -0.077,-0.07798 -0.1546,-0.155187 -0.23242,-0.232421 -0.0741,-0.0751 -0.14781,-0.150202 -0.22266,-0.22461 -0.0795,-0.08065 -0.15985,-0.160382 -0.24023,-0.240234 -0.0718,-0.07278 -0.14423,-0.144669 -0.2168,-0.216797 -0.0683,-0.06915 -0.13612,-0.13847 -0.20508,-0.207031 -0.0692,-0.0701 -0.13904,-0.139491 -0.20898,-0.208985 -0.0522,-0.05271 -0.10566,-0.103885 -0.1582,-0.15625 -0.0625,-0.06327 -0.12447,-0.12668 -0.1875,-0.189453 -0.0547,-0.05534 -0.1089,-0.111055 -0.16407,-0.166016 -0.0512,-0.05172 -0.10274,-0.102908 -0.15429,-0.154296 -0.0525,-0.05297 -0.10537,-0.105583 -0.15821,-0.158204 -0.0399,-0.04021 -0.081,-0.07913 -0.12109,-0.11914 -0.036,-0.03632 -0.0712,-0.07321 -0.10742,-0.109375 -0.0424,-0.04285 -0.0843,-0.08628 -0.12695,-0.128906 -0.0341,-0.03434 -0.0693,-0.06737 -0.10352,-0.101563 -0.0308,-0.03107 -0.0608,-0.0628 -0.0918,-0.09375 -0.0273,-0.02746 -0.0547,-0.05467 -0.082,-0.08203 -0.0285,-0.02873 -0.0573,-0.05731 -0.0859,-0.08594 -0.0159,-0.01599 -0.0329,-0.03093 -0.0488,-0.04687 -0.012,-0.0121 -0.0231,-0.02503 -0.0352,-0.03711 -0.0185,-0.01862 -0.0361,-0.03806 -0.0547,-0.05664 -0.0104,-0.01044 -0.0209,-0.02082 -0.0312,-0.03125 -0.004,-0.0039 -0.008,-0.0078 -0.0117,-0.01172 -0.005,-0.0052 -0.0104,-0.01042 -0.0156,-0.01563 -0.48566,-0.487454 -0.98734,-0.95894 -1.50586,-1.416016 -0.005,-0.0046 -0.0104,-0.0091 -0.0156,-0.01367 -1.560681,-1.373952 -3.269166,-2.605038 -5.107417,-3.669922 v -0.002 c -0.0079,-0.0046 -0.01557,-0.0091 -0.02344,-0.01367 l -0.002,-0.0098 v -0.002 c -0.0026,0.0019 -0.0052,0.0036 -0.0078,0.0059 -0.002,-0.0012 -0.0038,-0.0027 -0.0059,-0.0039 z"
         style="display:inline;opacity:0.1;fill:url(#linearGradient6029);fill-opacity:1;stroke-width:0.39684403" />
    </g>
    <g
       style="display:inline;filter:url(#filter4704)"
       inkscape:label="Leaf"
       id="leaf">
      <rect
         style="opacity:1;fill:#4caf50;fill-opacity:1;stroke-width:0.10499831"
         id="stalk"
         width="1.0583333"
         height="25.4"
         x="24.870832"
         y="262.60416"
         inkscape:label="Stalk" />
      <g
         id="leaf-top"
         inkscape:label="Top"
         transform="matrix(-1,0,0,1,38.099999,-26.993289)">
        <path
           transform="matrix(0.26458333,0,0,0.26458333,0,246.20001)"
           inkscape:label="Base"
           id="leaf-top-base"
           d="M 48.009766,132.32812 A 31.999999,31.999999 0 0 0 32,160 31.999999,31.999999 0 0 0 47.990234,187.67188 31.999999,31.999999 0 0 0 64,160 31.999999,31.999999 0 0 0 48.009766,132.32812 Z"
           style="opacity:1;fill:#4caf50;fill-opacity:1;stroke-width:1.22660816"
           inkscape:connector-curvature="0" />
        <path
           inkscape:label="Tint"
           id="leaf-top-tint"
           transform="matrix(0.26458333,0,0,0.26458333,0,246.20001)"
           d="m 48,132.32227 v 55.3457 A 31.999999,31.999999 0 0 0 64,160 31.999999,31.999999 0 0 0 48,132.32227 Z"
           style="opacity:1;fill:#ffffff;fill-opacity:0.2;stroke-width:3.22223139"
           inkscape:connector-curvature="0" />
      </g>
      <g
         transform="matrix(0.5,-0.8660254,-0.8660254,-0.5,262.56912,425.84171)"
         inkscape:label="Upper Left"
         id="leaf-upper-left">
        <path
           inkscape:connector-curvature="0"
           style="opacity:1;fill:#4caf50;fill-opacity:1;stroke-width:1.22660816"
           d="M 48.009766,132.32812 A 31.999999,31.999999 0 0 0 32,160 31.999999,31.999999 0 0 0 47.990234,187.67188 31.999999,31.999999 0 0 0 64,160 31.999999,31.999999 0 0 0 48.009766,132.32812 Z"
           id="leaf-upper-left-base"
           inkscape:label="Base"
           transform="matrix(0.26458333,0,0,0.26458333,0,246.20001)" />
        <path
           inkscape:connector-curvature="0"
           style="opacity:1;fill:#ffffff;fill-opacity:0.2;stroke-width:3.22223139"
           d="m 48,132.32227 v 55.3457 A 31.999999,31.999999 0 0 0 64,160 31.999999,31.999999 0 0 0 48,132.32227 Z"
           transform="matrix(0.26458333,0,0,0.26458333,0,246.20001)"
           id="path4654"
           inkscape:label="Tint" />
      </g>
      <g
         id="leaf-lower-left"
         inkscape:label="Lower Left"
         transform="matrix(0.5,-0.8660254,-0.8660254,-0.5,262.56912,435.89587)">
        <path
           transform="matrix(0.26458333,0,0,0.26458333,0,246.20001)"
           inkscape:label="Base"
           id="leaf-lower-left-base"
           d="M 48.009766,132.32812 A 31.999999,31.999999 0 0 0 32,160 31.999999,31.999999 0 0 0 47.990234,187.67188 31.999999,31.999999 0 0 0 64,160 31.999999,31.999999 0 0 0 48.009766,132.32812 Z"
           style="opacity:1;fill:#4caf50;fill-opacity:1;stroke-width:1.22660816"
           inkscape:connector-curvature="0" />
        <path
           inkscape:label="Tint"
           id="leaf-lower-left-tint"
           transform="matrix(0.26458333,0,0,0.26458333,0,246.20001)"
           d="m 48,132.32227 v 55.3457 A 31.999999,31.999999 0 0 0 64,160 31.999999,31.999999 0 0 0 48,132.32227 Z"
           style="opacity:1;fill:#ffffff;fill-opacity:0.2;stroke-width:3.22223139"
           inkscape:connector-curvature="0" />
      </g>
      <g
         transform="matrix(-0.5,-0.86602487,-0.8660254,0.49999969,287.96693,137.30696)"
         inkscape:label="Upper Right"
         id="leaf-upper-right">
        <path
           inkscape:connector-curvature="0"
           style="opacity:1;fill:#4caf50;fill-opacity:1;stroke-width:1.22660816"
           d="M 48.009766,132.32812 A 31.999999,31.999999 0 0 0 32,160 31.999999,31.999999 0 0 0 47.990234,187.67188 31.999999,31.999999 0 0 0 64,160 31.999999,31.999999 0 0 0 48.009766,132.32812 Z"
           id="leaf-upper-right-base"
           inkscape:label="Base"
           transform="matrix(0.26458333,0,0,0.26458333,0,246.20001)" />
        <path
           inkscape:connector-curvature="0"
           style="opacity:1;fill:#ffffff;fill-opacity:0.2;stroke-width:3.22223139"
           d="m 48,132.32227 v 55.3457 A 31.999999,31.999999 0 0 0 64,160 31.999999,31.999999 0 0 0 48,132.32227 Z"
           transform="matrix(0.26458333,0,0,0.26458333,0,246.20001)"
           id="leaf-upper-right-tint"
           inkscape:label="Tint" />
      </g>
      <g
         id="leaf-lower-right"
         inkscape:label="Lower Right"
         transform="matrix(-0.5,-0.8660254,-0.8660254,0.5,287.96693,147.36104)">
        <path
           transform="matrix(0.26458333,0,0,0.26458333,0,246.20001)"
           inkscape:label="Base"
           id="leaf-lower-right-base"
           d="M 48.009766,132.32812 A 31.999999,31.999999 0 0 0 32,160 31.999999,31.999999 0 0 0 47.990234,187.67188 31.999999,31.999999 0 0 0 64,160 31.999999,31.999999 0 0 0 48.009766,132.32812 Z"
           style="opacity:1;fill:#4caf50;fill-opacity:1;stroke-width:1.22660816"
           inkscape:connector-curvature="0" />
        <path
           inkscape:label="Tint"
           id="leaf-lower-right-tint"
           transform="matrix(0.26458333,0,0,0.26458333,0,246.20001)"
           d="m 48,132.32227 v 55.3457 A 31.999999,31.999999 0 0 0 64,160 31.999999,31.999999 0 0 0 48,132.32227 Z"
           style="opacity:1;fill:#ffffff;fill-opacity:0.2;stroke-width:3.22223139"
           inkscape:connector-curvature="0" />
      </g>
    </g>
    <rect
       sodipodi:insensitive="true"
       inkscape:label="Finish (solid)"
       y="246.20001"
       x="-2.220446e-16"
       height="50.799999"
       width="50.799999"
       id="finish-flat"
       style="display:none;fill:url(#radialGradient4620);fill-opacity:1;stroke-width:0.29643518" />
    <circle
       sodipodi:insensitive="true"
       inkscape:label="Finish (circle)"
       r="23.283333"
       cy="271.60001"
       cx="25.4"
       id="finish-circle"
       style="display:inline;opacity:1;fill:url(#radialGradient4714);fill-opacity:1;stroke-width:1.39534867" />
  </g>
</svg>
