<?xml version="1.0" encoding="UTF-8" standalone="no"?>
<!-- Created with Inkscape (http://www.inkscape.org/) -->

<svg
   xmlns:dc="http://purl.org/dc/elements/1.1/"
   xmlns:cc="http://creativecommons.org/ns#"
   xmlns:rdf="http://www.w3.org/1999/02/22-rdf-syntax-ns#"
   xmlns:svg="http://www.w3.org/2000/svg"
   xmlns="http://www.w3.org/2000/svg"
   xmlns:sodipodi="http://sodipodi.sourceforge.net/DTD/sodipodi-0.dtd"
   xmlns:inkscape="http://www.inkscape.org/namespaces/inkscape"
   width="192"
   height="192"
   viewBox="0 0 50.799999 50.799999"
   version="1.1"
   id="svg8"
   inkscape:version="0.92.1 r15371"
   sodipodi:docname="footer-circle.svg"
   inkscape:export-xdpi="96"
   inkscape:export-ydpi="96">
  <sodipodi:namedview
     id="base"
     pagecolor="#ffffff"
     bordercolor="#666666"
     borderopacity="1.0"
     inkscape:pageopacity="0"
     inkscape:pageshadow="2"
     inkscape:zoom="4.3697917"
     inkscape:cx="98.961053"
     inkscape:cy="95.084625"
     inkscape:document-units="px"
     inkscape:current-layer="layer1"
     showgrid="true"
     units="px"
     inkscape:window-width="1920"
     inkscape:window-height="1021"
     inkscape:window-x="0"
     inkscape:window-y="0"
     inkscape:window-maximized="1"
     inkscape:measure-start="0,0"
     inkscape:measure-end="0,0"
     showguides="false"
     inkscape:pagecheckerboard="false">
    <inkscape:grid
       empspacing="8"
       id="grid4728"
       type="xygrid" />
  </sodipodi:namedview>
  <defs
     id="defs2">
    <filter
       style="color-interpolation-filters:sRGB;"
       inkscape:label="Tint &amp; Shade"
       id="filter4769">
      <feFlood
         flood-opacity="0.2"
         flood-color="rgb(255,255,255)"
         result="flood"
         id="feFlood4759" />
      <feComposite
         in="flood"
         in2="SourceGraphic"
         operator="out"
         result="composite1"
         id="feComposite4761" />
      <feGaussianBlur
         in="composite1"
         stdDeviation="0"
         result="blur"
         id="feGaussianBlur4763" />
      <feOffset
         dx="0"
         dy="0.25"
         result="offset"
         id="feOffset4765" />
      <feComposite
         in="offset"
         in2="SourceGraphic"
         operator="atop"
         result="fbSourceGraphic"
         id="feComposite4767" />
      <feColorMatrix
         id="feColorMatrix4771"
         values="0 0 0 -1 0 0 0 0 -1 0 0 0 0 -1 0 0 0 0 1 0"
         in="fbSourceGraphic"
         result="fbSourceGraphicAlpha" />
      <feFlood
         in="fbSourceGraphic"
         result="flood"
         flood-color="rgb(38,50,56)"
         flood-opacity="0.2"
         id="feFlood4773" />
      <feComposite
         result="composite1"
         operator="out"
         in="flood"
         id="feComposite4775"
         in2="fbSourceGraphic" />
      <feGaussianBlur
         result="blur"
         stdDeviation="0"
         in="composite1"
         id="feGaussianBlur4777" />
      <feOffset
         result="offset"
         dy="-0.25"
         dx="0"
         id="feOffset4779" />
      <feComposite
         result="composite2"
         operator="atop"
         in="offset"
         id="feComposite4781"
         in2="fbSourceGraphic" />
    </filter>
    <filter
       id="filter4704"
       inkscape:label="Leaf Shadow"
       style="color-interpolation-filters:sRGB;">
      <feFlood
         id="feFlood4694"
         result="flood"
         flood-color="rgb(38,50,56)"
         flood-opacity="0.2" />
      <feComposite
         id="feComposite4696"
         result="composite1"
         operator="in"
         in2="SourceGraphic"
         in="flood" />
      <feGaussianBlur
         id="feGaussianBlur4698"
         result="blur"
         stdDeviation="1"
         in="composite1" />
      <feOffset
         id="feOffset4700"
         result="offset"
         dy="1"
         dx="0" />
      <feComposite
         id="feComposite4702"
         result="composite2"
         operator="over"
         in2="offset"
         in="SourceGraphic" />
    </filter>
  </defs>
  <metadata
     id="metadata5">
    <rdf:RDF>
      <cc:Work
         rdf:about="">
        <dc:format>image/svg+xml</dc:format>
        <dc:type
           rdf:resource="http://purl.org/dc/dcmitype/StillImage" />
        <dc:title></dc:title>
      </cc:Work>
    </rdf:RDF>
  </metadata>
  <g
     transform="translate(0,-246.20001)"
     id="layer1"
     inkscape:groupmode="layer"
     inkscape:label="Main Layer">
    <path
       style="display:inline;fill:#9e9e9e;fill-opacity:1;stroke-width:2.12651992"
       d="M 96,8 A 88,88 0 0 0 8,96 88,88 0 0 0 96,184 88,88 0 0 0 184,96 88,88 0 0 0 96,8 Z m -0.0098,22.306641 v 0.002 A 31.999999,31.999999 0 0 1 112,57.980469 31.999999,31.999999 0 0 1 98,84.363281 v 10.583985 a 31.999979,31.999998 89.872441 0 1 13.96094,-16.675782 31.999979,31.999998 89.872441 0 1 31.95898,0.01172 A 31.999979,31.999998 89.872441 0 1 127.96094,105.98438 31.999979,31.999998 89.872441 0 1 98,107.00195 v 25.94532 a 31.999998,31.999998 0 0 1 13.96094,-16.67579 31.999998,31.999998 0 0 1 31.95898,0.0117 31.999998,31.999998 0 0 1 -15.95898,27.70118 A 31.999998,31.999998 0 0 1 98,145.00195 v 13 H 94 V 144.95703 A 31.999998,31.999998 0 0 1 63.96875,143.99219 31.999998,31.999998 0 0 1 48,116.30664 31.999998,31.999998 0 0 1 79.96875,116.27539 31.999998,31.999998 0 0 1 94,133.01758 v -26.0625 A 31.999998,31.999998 0 0 1 63.96875,105.99023 31.999998,31.999998 0 0 1 48,78.304688 31.999998,31.999998 0 0 1 79.96875,78.275391 31.999998,31.999998 0 0 1 94,95.017578 V 84.353516 a 31.999999,31.999999 0 0 1 -14,-26.375 31.999999,31.999999 0 0 1 15.990234,-27.671875 z"
       transform="matrix(0.26458333,0,0,0.26458333,0,246.20001)"
       id="background-circle"
       inkscape:connector-curvature="0" />
  </g>
</svg>
