<svg xmlns="http://www.w3.org/2000/svg" width="192" height="192" viewBox="0 0 50.799999 50.799999"><path d="M25.4 2.117A23.283 23.283 0 0 0 2.117 25.4 23.283 23.283 0 0 0 25.4 48.683 23.283 23.283 0 0 0 48.683 25.4 23.283 23.283 0 0 0 25.4 2.117zm-.003 5.902a8.467 8.467 0 0 1 4.236 7.322 8.467 8.467 0 0 1-3.704 6.98v2.8a8.467 8.467 89.872 0 1 3.694-4.412 8.467 8.467 89.872 0 1 8.456.003 8.467 8.467 89.872 0 1-4.223 7.33 8.467 8.467 89.872 0 1-7.927.269v6.865a8.467 8.467 0 0 1 3.694-4.413 8.467 8.467 0 0 1 8.456.004 8.467 8.467 0 0 1-4.223 7.329 8.467 8.467 0 0 1-7.927.27v3.439h-1.058v-3.452a8.467 8.467 0 0 1-7.946-.255 8.467 8.467 0 0 1-4.225-7.325 8.467 8.467 0 0 1 8.458-.008 8.467 8.467 0 0 1 3.713 4.43v-6.896a8.467 8.467 0 0 1-7.946-.256 8.467 8.467 0 0 1-4.225-7.325 8.467 8.467 0 0 1 8.458-.008 8.467 8.467 0 0 1 3.713 4.43V22.32a8.467 8.467 0 0 1-3.704-6.979 8.467 8.467 0 0 1 4.23-7.321z" fill="#9e9e9e"/></svg>