<?xml version="1.0" encoding="UTF-8" standalone="no"?>
<svg
   xmlns:dc="http://purl.org/dc/elements/1.1/"
   xmlns:cc="http://creativecommons.org/ns#"
   xmlns:rdf="http://www.w3.org/1999/02/22-rdf-syntax-ns#"
   xmlns:svg="http://www.w3.org/2000/svg"
   xmlns="http://www.w3.org/2000/svg"
   xmlns:sodipodi="http://sodipodi.sourceforge.net/DTD/sodipodi-0.dtd"
   xmlns:inkscape="http://www.inkscape.org/namespaces/inkscape"
   width="36"
   height="36"
   viewBox="0 0 36 36"
   version="1.1"
   id="svg11"
   sodipodi:docname="facebook.svg"
   inkscape:version="0.92.1 r15371">
  <metadata
     id="metadata15">
    <rdf:RDF>
      <cc:Work
         rdf:about="">
        <dc:format>image/svg+xml</dc:format>
        <dc:type
           rdf:resource="http://purl.org/dc/dcmitype/StillImage" />
        <dc:title>Facebook-black</dc:title>
      </cc:Work>
    </rdf:RDF>
  </metadata>
  <sodipodi:namedview
     pagecolor="#ffffff"
     bordercolor="#666666"
     borderopacity="1"
     objecttolerance="10"
     gridtolerance="10"
     guidetolerance="10"
     inkscape:pageopacity="0"
     inkscape:pageshadow="2"
     inkscape:window-width="1920"
     inkscape:window-height="1021"
     id="namedview13"
     showgrid="false"
     inkscape:zoom="17.479167"
     inkscape:cx="35.14193"
     inkscape:cy="24"
     inkscape:window-x="0"
     inkscape:window-y="0"
     inkscape:window-maximized="1"
     inkscape:current-layer="Icons" />
  <!-- Generator: Sketch 3.7.2 (28276) - http://www.bohemiancoding.com/sketch -->
  <title
     id="title2">Facebook-black</title>
  <desc
     id="desc4">Created with Sketch.</desc>
  <defs
     id="defs6" />
  <g
     id="Icons"
     style="fill:none;fill-rule:evenodd;stroke:none;stroke-width:1"
     transform="translate(0,-12)">
    <g
       id="Black"
       transform="matrix(0.75,0,0,0.75,-150,-108)"
       style="fill:#9e9e9e;fill-opacity:1">
      <path
         d="M 225.63835,208 H 202.64923 C 201.18567,208 200,206.81359 200,205.3506 V 162.64921 C 200,161.18585 201.18586,160 202.64923,160 h 42.70172 c 1.463,0 2.64905,1.18585 2.64905,2.64921 V 205.3506 C 248,206.81378 246.81377,208 245.35095,208 H 233.1193 v -18.58825 h 6.23922 l 0.93423,-7.24416 h -7.17345 v -4.62495 c 0,-2.09735 0.58241,-3.52663 3.58999,-3.52663 l 3.83602,-0.002 v -6.47924 c -0.66342,-0.0883 -2.94053,-0.28552 -5.58976,-0.28552 -5.53072,0 -9.3172,3.37596 -9.3172,9.57564 v 5.34238 h -6.25523 v 7.24416 h 6.25523 z"
         id="Facebook"
         inkscape:connector-curvature="0"
         style="fill:#9e9e9e;fill-opacity:1" />
    </g>
  </g>
</svg>
