<?xml version="1.0" encoding="UTF-8" standalone="no"?>
<svg
   xmlns:dc="http://purl.org/dc/elements/1.1/"
   xmlns:cc="http://creativecommons.org/ns#"
   xmlns:rdf="http://www.w3.org/1999/02/22-rdf-syntax-ns#"
   xmlns:svg="http://www.w3.org/2000/svg"
   xmlns="http://www.w3.org/2000/svg"
   xmlns:sodipodi="http://sodipodi.sourceforge.net/DTD/sodipodi-0.dtd"
   xmlns:inkscape="http://www.inkscape.org/namespaces/inkscape"
   width="36"
   height="36"
   viewBox="0 0 36 36"
   version="1.1"
   id="svg11"
   sodipodi:docname="Github-black.svg"
   inkscape:version="0.92.1 r15371">
  <metadata
     id="metadata15">
    <rdf:RDF>
      <cc:Work
         rdf:about="">
        <dc:format>image/svg+xml</dc:format>
        <dc:type
           rdf:resource="http://purl.org/dc/dcmitype/StillImage" />
        <dc:title>Github-black</dc:title>
      </cc:Work>
    </rdf:RDF>
  </metadata>
  <sodipodi:namedview
     pagecolor="#ffffff"
     bordercolor="#666666"
     borderopacity="1"
     objecttolerance="10"
     gridtolerance="10"
     guidetolerance="10"
     inkscape:pageopacity="0"
     inkscape:pageshadow="2"
     inkscape:window-width="1920"
     inkscape:window-height="1021"
     id="namedview13"
     showgrid="false"
     inkscape:zoom="5.0212766"
     inkscape:cx="-19.614407"
     inkscape:cy="23.5"
     inkscape:window-x="0"
     inkscape:window-y="0"
     inkscape:window-maximized="1"
     inkscape:current-layer="Icons" />
  <!-- Generator: Sketch 3.7.2 (28276) - http://www.bohemiancoding.com/sketch -->
  <title
     id="title2">Github-black</title>
  <desc
     id="desc4">Created with Sketch.</desc>
  <defs
     id="defs6" />
  <g
     id="Icons"
     style="fill:none;fill-rule:evenodd;stroke:none;stroke-width:1"
     transform="matrix(0.75,0,0,0.75,0,0.37500051)">
    <g
       id="Black"
       transform="translate(-700,-560)"
       style="fill:#9e9e9e;fill-opacity:1">
      <path
         d="M 723.9985,560 C 710.746,560 700,570.78709 700,584.09664 c 0,10.64403 6.876,19.67519 16.4145,22.86177 1.2,0.22138 1.638,-0.52256 1.638,-1.16108 0,-0.57226 -0.021,-2.08724 -0.033,-4.09768 -6.6765,1.45625 -8.085,-3.23026 -8.085,-3.23026 -1.0905,-2.78298 -2.664,-3.52391 -2.664,-3.52391 -2.1795,-1.49541 0.165,-1.46529 0.165,-1.46529 2.4075,0.17018 3.675,2.48331 3.675,2.48331 2.142,3.68204 5.6175,2.61884 6.9855,2.0014 0.2175,-1.55715 0.8385,-2.61884 1.524,-3.22122 -5.3295,-0.6084 -10.932,-2.67456 -10.932,-11.90751 0,-2.63089 0.9345,-4.78138 2.4705,-6.46654 -0.2475,-0.6099 -1.071,-3.05857 0.234,-6.37617 0,0 2.016,-0.64756 6.6,2.46975 1.9155,-0.53461 3.9675,-0.80116 6.009,-0.8117 2.0385,0.0105 4.092,0.27709 6.009,0.8117 4.581,-3.11731 6.5925,-2.46975 6.5925,-2.46975 1.3095,3.3176 0.486,5.76627 0.2385,6.37617 1.539,1.68516 2.4675,3.83565 2.4675,6.46654 0,9.25554 -5.6115,11.29309 -10.9575,11.88944 0.861,0.74394 1.629,2.21374 1.629,4.46212 0,3.22122 -0.03,5.81898 -0.03,6.6096 0,0.64454 0.432,1.3945 1.65,1.15807 C 741.13,603.76279 748,594.73766 748,584.09664 748,570.78709 737.254,560 723.9985,560"
         id="Github"
         inkscape:connector-curvature="0"
         style="fill:#9e9e9e;fill-opacity:1" />
    </g>
  </g>
</svg>
