<?xml version="1.0" encoding="UTF-8" standalone="no"?>
<!-- Generator: Adobe Illustrator 19.0.1, SVG Export Plug-In . SVG Version: 6.00 Build 0)  -->

<svg
   xmlns:dc="http://purl.org/dc/elements/1.1/"
   xmlns:cc="http://creativecommons.org/ns#"
   xmlns:rdf="http://www.w3.org/1999/02/22-rdf-syntax-ns#"
   xmlns:svg="http://www.w3.org/2000/svg"
   xmlns="http://www.w3.org/2000/svg"
   xmlns:sodipodi="http://sodipodi.sourceforge.net/DTD/sodipodi-0.dtd"
   xmlns:inkscape="http://www.inkscape.org/namespaces/inkscape"
   version="1.1"
   id="Layer_1"
   x="0px"
   y="0px"
   viewBox="-241.9 332.3 36 36"
   xml:space="preserve"
   sodipodi:docname="gplus.svg"
   width="36"
   height="36"
   inkscape:version="0.92.1 r15371"><metadata
     id="metadata11"><rdf:RDF><cc:Work
         rdf:about=""><dc:format>image/svg+xml</dc:format><dc:type
           rdf:resource="http://purl.org/dc/dcmitype/StillImage" /><dc:title></dc:title></cc:Work></rdf:RDF></metadata><defs
     id="defs9" /><sodipodi:namedview
     pagecolor="#ffffff"
     bordercolor="#666666"
     borderopacity="1"
     objecttolerance="10"
     gridtolerance="10"
     guidetolerance="10"
     inkscape:pageopacity="0"
     inkscape:pageshadow="2"
     inkscape:window-width="1920"
     inkscape:window-height="1021"
     id="namedview7"
     showgrid="false"
     inkscape:zoom="1.8223938"
     inkscape:cx="-55.42161"
     inkscape:cy="64.75"
     inkscape:window-x="0"
     inkscape:window-y="0"
     inkscape:window-maximized="1"
     inkscape:current-layer="Layer_1" /><path
     d="m -223.9,332.3 c -9.92812,0 -18,8.07187 -18,18 0,9.92813 8.07188,18 18,18 9.92813,0 18,-8.07187 18,-18 0,-9.92813 -8.07187,-18 -18,-18 z m 5.00625,18.30937 c 0.0281,5.5125 -3.62812,9.225 -9.1125,9.225 -5.34375,0 -9.70312,-4.275 -9.70312,-9.53437 0,-5.25937 4.35937,-9.53437 9.70312,-9.53437 2.33438,0 4.6125,0.84375 6.35625,2.33437 l -2.475,2.78438 c -1.06875,-0.92813 -2.475,-1.43438 -3.90937,-1.43438 -3.29063,0 -5.93438,2.61562 -5.93438,5.85 0,3.20625 2.67188,5.85 5.93438,5.85 2.78437,0 4.58437,-1.32187 5.175,-3.7125 h -5.11875 v -3.68438 h 9.08437 z m 7.34063,0.36563 v 2.8125 h -2.25 v -2.8125 h -2.8125 v -2.25 h 2.8125 v -2.8125 h 2.25 v 2.8125 h 2.8125 v 2.25 z"
     id="path4"
     inkscape:label="gplus"
     style="fill:#9e9e9e;fill-opacity:1"
     inkscape:connector-curvature="0" /></svg>
