<?xml version="1.0" encoding="UTF-8" standalone="no"?>
<svg
   xmlns:dc="http://purl.org/dc/elements/1.1/"
   xmlns:cc="http://creativecommons.org/ns#"
   xmlns:rdf="http://www.w3.org/1999/02/22-rdf-syntax-ns#"
   xmlns:svg="http://www.w3.org/2000/svg"
   xmlns="http://www.w3.org/2000/svg"
   xmlns:sodipodi="http://sodipodi.sourceforge.net/DTD/sodipodi-0.dtd"
   xmlns:inkscape="http://www.inkscape.org/namespaces/inkscape"
   width="36"
   height="36"
   viewBox="0 0 36 36"
   version="1.1"
   id="svg4622"
   sodipodi:docname="youtube.svg"
   inkscape:version="0.92.1 r15371">
  <metadata
     id="metadata4626">
    <rdf:RDF>
      <cc:Work
         rdf:about="">
        <dc:format>image/svg+xml</dc:format>
        <dc:type
           rdf:resource="http://purl.org/dc/dcmitype/StillImage" />
        <dc:title>Youtube-black</dc:title>
      </cc:Work>
    </rdf:RDF>
  </metadata>
  <sodipodi:namedview
     pagecolor="#ffffff"
     bordercolor="#666666"
     borderopacity="1"
     objecttolerance="10"
     gridtolerance="10"
     guidetolerance="10"
     inkscape:pageopacity="0"
     inkscape:pageshadow="2"
     inkscape:window-width="1920"
     inkscape:window-height="1021"
     id="namedview4624"
     showgrid="false"
     inkscape:zoom="23.305556"
     inkscape:cx="18"
     inkscape:cy="18"
     inkscape:window-x="0"
     inkscape:window-y="0"
     inkscape:window-maximized="1"
     inkscape:current-layer="Icons" />
  <!-- Generator: Sketch 3.7.2 (28276) - http://www.bohemiancoding.com/sketch -->
  <title
     id="title4613">Youtube-black</title>
  <desc
     id="desc4615">Created with Sketch.</desc>
  <defs
     id="defs4617" />
  <g
     id="Icons"
     style="fill:none;fill-rule:evenodd;stroke:none;stroke-width:1"
     transform="matrix(0.75,0,0,0.75,0,5.25)">
    <g
       id="Black"
       transform="translate(-200,-368)"
       style="fill:#9e9e9e;fill-opacity:1">
      <path
         d="m 219.044,391.26992 -0.002,-13.58218 12.969,6.8145 z m 28.476,-15.93576 c 0,0 -0.4695,-3.33096 -1.908,-4.79779 -1.8255,-1.92607 -3.8715,-1.93514 -4.809,-2.04692 C 234.086,368 224.0105,368 224.0105,368 h -0.021 c 0,0 -10.0755,0 -16.7925,0.48945 -0.939,0.11178 -2.9835,0.12085 -4.8105,2.04692 -1.4385,1.46683 -1.9065,4.79779 -1.9065,4.79779 0,0 -0.48,3.91256 -0.48,7.82361 v 3.66784 c 0,3.91256 0.48,7.82361 0.48,7.82361 0,0 0.468,3.33096 1.9065,4.7978 1.827,1.92606 4.2255,1.86564 5.2935,2.06655 C 211.52,401.88519 224,402 224,402 c 0,0 10.086,-0.0151 16.803,-0.50455 0.9375,-0.1133 2.9835,-0.12237 4.809,-2.04843 1.4385,-1.46684 1.908,-4.7978 1.908,-4.7978 0,0 0.48,-3.91105 0.48,-7.82361 v -3.66784 c 0,-3.91105 -0.48,-7.82361 -0.48,-7.82361 z"
         id="Youtube"
         inkscape:connector-curvature="0"
         style="fill:#9e9e9e;fill-opacity:1" />
    </g>
  </g>
</svg>
