<svg xmlns="http://www.w3.org/2000/svg" xmlns:xlink="http://www.w3.org/1999/xlink" width="192" height="192" viewBox="0 0 50.799999 50.799999" id="svg8"><defs id="defs2"><linearGradient id="linear-gradient-6"><stop offset="0" id="stop6001"/><stop offset="1" id="stop6003" stop-opacity="0"/></linearGradient><linearGradient id="radial-gradient-3"><stop id="stop4614" offset="0" stop-color="#fff" stop-opacity=".1"/><stop id="stop4616" offset="1" stop-color="#fff" stop-opacity="0"/></linearGradient><filter id="filter4769" color-interpolation-filters="sRGB"><feFlood flood-opacity=".2" flood-color="#FFF" result="flood" id="feFlood4759"/><feComposite in="flood" in2="SourceGraphic" operator="out" result="composite1" id="feComposite4761"/><feGaussianBlur in="composite1" result="blur" id="feGaussianBlur4763"/><feOffset dy=".25" result="offset" id="feOffset4765"/><feComposite in="offset" in2="SourceGraphic" operator="atop" result="fbSourceGraphic" id="feComposite4767"/><feColorMatrix id="feColorMatrix4771" values="0 0 0 -1 0 0 0 0 -1 0 0 0 0 -1 0 0 0 0 1 0" in="fbSourceGraphic" result="fbSourceGraphicAlpha"/><feFlood result="flood" flood-color="#263238" flood-opacity=".2" id="feFlood4773"/><feComposite result="composite1" operator="out" in="flood" id="feComposite4775" in2="fbSourceGraphic"/><feGaussianBlur result="blur" in="composite1" id="feGaussianBlur4777"/><feOffset result="offset" dy="-.25" id="feOffset4779"/><feComposite result="composite2" operator="atop" in="offset" id="feComposite4781" in2="fbSourceGraphic"/></filter><radialGradient gradientUnits="userSpaceOnUse" gradientTransform="matrix(0 2.2861 -2.2861 0 569.344 241.909)" r="22.221" fy="249.046" fx="1.877" cy="249.046" cx="1.877" id="radialGradient4620" xlink:href="#radial-gradient-3"/><filter id="filter4704" color-interpolation-filters="sRGB"><feFlood id="feFlood4694" result="flood" flood-color="#263238" flood-opacity=".2"/><feComposite id="feComposite4696" result="composite1" operator="in" in2="SourceGraphic" in="flood"/><feGaussianBlur id="feGaussianBlur4698" result="blur" stdDeviation="1" in="composite1"/><feOffset id="feOffset4700" result="offset" dy="1"/><feComposite id="feComposite4702" result="composite2" in2="offset" in="SourceGraphic"/></filter><radialGradient gradientTransform="matrix(0 2 -2 0 607.962 254.236)" gradientUnits="userSpaceOnUse" r="25.4" fy="303.981" fx="-4.018" cy="303.981" cx="-4.018" id="radialGradient4714" xlink:href="#radial-gradient-3"/><linearGradient xlink:href="#linear-gradient-6" id="linearGradient6007" x1="96" y1="96" x2="160" y2="160" gradientUnits="userSpaceOnUse"/><linearGradient xlink:href="#linear-gradient-6" id="linearGradient6029" gradientUnits="userSpaceOnUse" x1="96" y1="96" x2="160" y2="160"/></defs><g transform="translate(0 -246.2)" id="layer1"><g id="g6106"><path id="background-solid" fill="#00897b" stroke-width=".223" d="M5.292 251.492h40.217v40.217H5.292z"/><path id="long-shadow-solid" transform="matrix(.26458 0 0 .26458 0 246.2)" d="M96.004 30.299l-.01.008a32 32 0 0 0-15.99 27.672 31.989 31.989 0 0 0 .346 4.648 32.004 32.004 0 0 0 .627 3.139c.12.42.248.84.384 1.255.168.61.354 1.213.557 1.811a31.999 31.999 0 0 0 5.557 9.65l.013.016.037.043c.327.388.66.769 1.004 1.14l.006.007c.001 0 .003 0 .004.002l.006.007.008.008.02.018c.002.002.005.004.007.008l.01.01.006.007.012.012c.002.002.005.002.007.006l.006.006c.01.011.023.021.033.033.003.002.006.004.008.008l.014.013c.01.012.022.022.033.034l.002.002.067.068c.002.002.005.004.007.008.305.321.611.64.928.949l.018.017.029.028c.013.012.024.026.037.039l.049.049.058.058.073.07.076.079.094.092.097.097c.038.038.075.076.114.113l.119.12.13.13.143.143.153.15c.054.054.106.11.162.164.057.057.113.116.172.172.06.06.121.122.183.182.065.064.128.132.193.195l.202.2.21.21c.078.077.154.157.233.233l.23.228c.081.08.159.163.24.243.088.086.173.174.26.26.089.087.175.177.264.263.093.092.185.186.28.277.093.093.184.188.279.28.066.065.128.136.195.2v5.61c-.12-.119-.236-.24-.357-.357-.132-.132-.261-.265-.395-.395-.115-.115-.229-.23-.346-.343-.126-.128-.25-.258-.379-.383-.117-.118-.234-.236-.353-.352-.12-.119-.236-.24-.357-.357-.104-.104-.206-.209-.311-.31-.107-.108-.213-.217-.322-.323-.106-.106-.21-.213-.317-.316-.1-.1-.199-.203-.3-.301-.092-.092-.181-.185-.274-.276-.1-.1-.198-.2-.299-.298-.095-.096-.19-.192-.287-.286-.08-.08-.159-.163-.24-.242-.084-.083-.166-.168-.25-.25l-.24-.238c-.071-.07-.14-.143-.211-.213-.08-.079-.156-.16-.237-.238l-.209-.21c-.071-.07-.142-.144-.214-.214-.051-.05-.101-.102-.153-.152l-.195-.196c-.056-.055-.11-.113-.166-.168l-.174-.172c-.038-.037-.073-.076-.111-.113l-.156-.154-.145-.145-.078-.078c-.042-.04-.081-.084-.123-.125-.032-.03-.062-.063-.094-.094l-.105-.103-.034-.035-.002-.002c-.028-.028-.055-.057-.084-.084l-.066-.067-.02-.02-.005-.005-.03-.031-.025-.026-.016-.015a32.014 32.014 0 0 0-1.154-1.073 31.992 31.992 0 0 0-5.197-3.752 32.002 32.002 0 0 0-10.346-3.767l-.01-.002a32.674 32.674 0 0 0-1.15-.147A32 32 0 0 0 48.014 78.3l.004.002c-.004.002-.008.004-.012.008a31.996 31.996 0 0 0 9.305 22.552l.007.008.022.022.047.045.021.02.008.007.05.051.063.063.059.058.096.098.093.092.12.117.1.1.124.124.135.135.13.131.169.168.164.166.191.19.158.158.21.209c.068.07.137.138.206.207.077.077.156.152.233.228l.217.217c.078.08.157.158.236.236.082.084.165.166.248.248l.256.256c.084.086.17.171.256.256.1.103.202.204.304.305.092.093.186.185.28.277.098.1.198.2.299.299.102.104.206.207.31.31.106.108.213.213.32.319.109.11.218.22.329.328.108.11.217.22.328.33.119.122.24.242.361.361.124.127.25.25.377.375.12.122.24.242.361.362.121.123.244.245.367.367.138.14.278.28.418.418.125.127.252.252.38.377.143.147.288.291.435.435.136.14.273.276.412.413.139.142.28.282.422.421.153.158.31.313.467.467.146.15.295.298.445.446.152.156.307.31.463.462.152.156.307.308.463.461.134.138.267.275.404.41-.135-.016-.27-.035-.406-.05a32 32 0 0 0-20.455 3.937l.004.002c-.004.003-.008.004-.012.008a31.996 31.996 0 0 0 9.273 22.516l.041.043c.003.002.004.006.006.008l.06.06.03.028.05.05.063.063.073.072c.022.023.045.048.068.07.04.042.082.083.123.124l.09.088.113.113.125.125.135.135.13.13.182.182.153.15c.058.06.117.118.176.176.061.063.123.124.185.186.065.066.132.13.197.195l.207.207.22.219c.074.076.15.151.226.226l.238.239.248.248.258.258c.088.09.178.178.267.267.093.094.188.186.282.28l.287.287.3.3c.103.105.207.208.311.311.106.107.213.212.32.318l.33.33c.108.11.216.219.325.327.124.127.252.251.379.377.115.117.232.233.35.35.122.125.247.248.372.372.125.128.252.253.38.38.13.132.261.263.394.394.131.134.266.266.4.398.137.14.275.277.414.414.14.143.282.284.424.424.142.145.287.289.432.432.146.15.295.297.445.445.15.153.302.304.455.455a32 32 0 0 0 .467.467c.15.154.303.306.457.457.167.172.338.341.51.51.159.163.321.322.484.482.162.166.327.33.492.492.179.184.36.364.543.543.17.174.342.344.516.514.177.182.357.36.539.539.179.184.361.365.545.545.183.188.369.373.556.556.187.192.377.38.569.567.19.195.383.387.578.578.192.198.388.393.586.586.196.202.396.4.597.598.196.201.395.399.596.595.212.22.428.434.647.647.201.208.407.41.615.613.21.216.422.43.639.64.209.217.423.429.638.64.225.232.456.459.688.685.216.223.437.443.66.66.222.23.449.453.678.676.227.235.458.467.693.695.226.234.456.463.69.69.238.247.483.49.73.73.233.241.472.477.713.711.24.25.487.493.736.734.238.247.48.49.727.729.25.26.504.514.763.765.255.264.516.522.78.778.248.257.502.508.76.758.257.267.52.528.787.787.26.27.527.536.798.799.26.27.527.535.797.796.267.278.54.55.819.819.175.182.357.359.537.537H172V104.8c-.21-.212-.415-.429-.633-.635a31.94 31.94 0 0 0-1.162-1.162 31.916 31.916 0 0 0-1.184-1.184c-.38-.4-.771-.791-1.173-1.174a31.913 31.913 0 0 0-1.135-1.136c-.379-.4-.77-.788-1.17-1.168a31.94 31.94 0 0 0-1.107-1.11 31.954 31.954 0 0 0-1.133-1.132 31.957 31.957 0 0 0-1.13-1.13 31.943 31.943 0 0 0-1.087-1.087c-.356-.375-.722-.74-1.098-1.098-.346-.364-.702-.72-1.066-1.068-.353-.37-.715-.732-1.086-1.086-.343-.36-.696-.712-1.057-1.057a31.963 31.963 0 0 0-1.05-1.05c-.342-.359-.692-.71-1.051-1.053-.33-.345-.667-.68-1.012-1.01a31.91 31.91 0 0 0-1.039-1.041 31.915 31.915 0 0 0-.99-.99 31.97 31.97 0 0 0-1.02-1.02 31.923 31.923 0 0 0-.98-.978 31.92 31.92 0 0 0-.983-.985c-.31-.324-.628-.643-.953-.955-.315-.33-.638-.652-.969-.969a31.963 31.963 0 0 0-.947-.947c-.305-.319-.618-.632-.937-.94a31.915 31.915 0 0 0-.928-.927 31.961 31.961 0 0 0-.916-.916c-.296-.309-.6-.611-.908-.908a31.954 31.954 0 0 0-.897-.897c-.29-.301-.585-.596-.886-.886-.288-.3-.58-.593-.88-.881a31.934 31.934 0 0 0-.867-.866c-.277-.289-.56-.572-.85-.851-.28-.292-.568-.578-.86-.86a31.958 31.958 0 0 0-.81-.808 31.97 31.97 0 0 0-.833-.836 31.919 31.919 0 0 0-.815-.814 31.95 31.95 0 0 0-.802-.805c-.26-.27-.524-.533-.793-.793-.26-.27-.525-.534-.795-.795a31.903 31.903 0 0 0-.752-.75 31.93 31.93 0 0 0-.772-.775c-.25-.26-.507-.514-.767-.766a31.953 31.953 0 0 0-.717-.717c-.243-.252-.49-.5-.742-.744a31.921 31.921 0 0 0-.72-.72 31.9 31.9 0 0 0-.712-.712 31.947 31.947 0 0 0-.713-.713c-.222-.23-.45-.454-.68-.677-.218-.226-.44-.45-.665-.67a31.97 31.97 0 0 0-.682-.682 31.918 31.918 0 0 0-.66-.66c-.213-.22-.43-.435-.649-.648a31.913 31.913 0 0 0-.654-.655 31.927 31.927 0 0 0-.602-.601 31.91 31.91 0 0 0-.628-.631c-.204-.21-.412-.415-.622-.62a31.908 31.908 0 0 0-.572-.573 31.98 31.98 0 0 0-.6-.6c-.189-.195-.381-.386-.576-.576a31.977 31.977 0 0 0-.566-.569 31.893 31.893 0 0 0-.557-.556c-.184-.19-.371-.376-.56-.56-.168-.172-.338-.34-.51-.509a31.951 31.951 0 0 0-.537-.539c-.17-.174-.342-.345-.516-.515-.166-.17-.333-.34-.504-.506-.162-.167-.327-.331-.494-.494a31.93 31.93 0 0 0-.484-.485c-.156-.159-.314-.316-.473-.472a31.993 31.993 0 0 0-.465-.465c-.149-.153-.3-.303-.453-.453-.146-.15-.294-.297-.443-.444-.143-.145-.286-.29-.432-.433-.139-.142-.28-.283-.422-.422a31.932 31.932 0 0 0-.427-.428c-.124-.126-.25-.249-.375-.373-.138-.14-.276-.28-.416-.418-.118-.12-.236-.237-.356-.355-.126-.13-.254-.258-.383-.385-.119-.122-.24-.242-.36-.361-.12-.123-.242-.243-.364-.364a31.958 31.958 0 0 0-.313-.312c-.113-.116-.228-.23-.343-.344-.105-.107-.21-.213-.317-.318a31.981 31.981 0 0 0-.31-.31 31.97 31.97 0 0 0-.313-.313 31.657 31.657 0 0 0-.262-.262c-.1-.103-.202-.204-.304-.305l-.24-.24a32.43 32.43 0 0 0-.286-.285 32.522 32.522 0 0 0-.232-.233l-.223-.224-.24-.24-.217-.217c-.068-.07-.136-.139-.205-.207l-.209-.21c-.052-.052-.106-.103-.158-.156l-.188-.189c-.054-.055-.108-.111-.164-.166-.05-.052-.102-.103-.154-.154l-.158-.158-.121-.12-.108-.109-.127-.129-.103-.101c-.03-.032-.06-.063-.092-.094l-.082-.082-.086-.086-.049-.047-.035-.037-.055-.057-.03-.031-.012-.012-.016-.015a31.913 31.913 0 0 0-1.506-1.416l-.015-.014a32.004 32.004 0 0 0-5.108-3.67v-.002l-.023-.014-.002-.01v-.002l-.008.006c-.002 0-.004-.002-.006-.004z" opacity=".1" fill="url(#linearGradient6007)" stroke-width=".397"/></g><g id="leaf" filter="url(#filter4704)"><path id="stalk" fill="#4caf50" stroke-width=".105" d="M24.871 262.604h1.058v25.4h-1.058z"/><g id="leaf-top" transform="matrix(-1 0 0 1 38.1 -26.993)"><path transform="matrix(.26458 0 0 .26458 0 246.2)" id="leaf-top-base" d="M48.01 132.328A32 32 0 0 0 32 160a32 32 0 0 0 15.99 27.672A32 32 0 0 0 64 160a32 32 0 0 0-15.99-27.672z" fill="#4caf50" stroke-width="1.227"/><path id="leaf-top-tint" transform="matrix(.26458 0 0 .26458 0 246.2)" d="M48 132.322v55.346A32 32 0 0 0 64 160a32 32 0 0 0-16-27.678z" fill="#fff" fill-opacity=".2" stroke-width="3.222"/></g><g transform="scale(1 -1) rotate(60 500.074 14.47)" id="leaf-upper-left"><path d="M48.01 132.328A32 32 0 0 0 32 160a32 32 0 0 0 15.99 27.672A32 32 0 0 0 64 160a32 32 0 0 0-15.99-27.672z" id="leaf-upper-left-base" transform="matrix(.26458 0 0 .26458 0 246.2)" fill="#4caf50" stroke-width="1.227"/><path d="M48 132.322v55.346A32 32 0 0 0 64 160a32 32 0 0 0-16-27.678z" transform="matrix(.26458 0 0 .26458 0 246.2)" id="path4654" fill="#fff" fill-opacity=".2" stroke-width="3.222"/></g><g id="leaf-lower-left" transform="scale(1 -1) rotate(60 508.781 9.444)"><path transform="matrix(.26458 0 0 .26458 0 246.2)" id="leaf-lower-left-base" d="M48.01 132.328A32 32 0 0 0 32 160a32 32 0 0 0 15.99 27.672A32 32 0 0 0 64 160a32 32 0 0 0-15.99-27.672z" fill="#4caf50" stroke-width="1.227"/><path id="leaf-lower-left-tint" transform="matrix(.26458 0 0 .26458 0 246.2)" d="M48 132.322v55.346A32 32 0 0 0 64 160a32 32 0 0 0-16-27.678z" fill="#fff" fill-opacity=".2" stroke-width="3.222"/></g><g transform="matrix(-.5 -.86602 -.86603 .5 287.967 137.307)" id="leaf-upper-right"><path d="M48.01 132.328A32 32 0 0 0 32 160a32 32 0 0 0 15.99 27.672A32 32 0 0 0 64 160a32 32 0 0 0-15.99-27.672z" id="leaf-upper-right-base" transform="matrix(.26458 0 0 .26458 0 246.2)" fill="#4caf50" stroke-width="1.227"/><path d="M48 132.322v55.346A32 32 0 0 0 64 160a32 32 0 0 0-16-27.678z" transform="matrix(.26458 0 0 .26458 0 246.2)" id="leaf-upper-right-tint" fill="#fff" fill-opacity=".2" stroke-width="3.222"/></g><g id="leaf-lower-right" transform="scale(-1 1) rotate(-60 -16.365 323.067)"><path transform="matrix(.26458 0 0 .26458 0 246.2)" id="leaf-lower-right-base" d="M48.01 132.328A32 32 0 0 0 32 160a32 32 0 0 0 15.99 27.672A32 32 0 0 0 64 160a32 32 0 0 0-15.99-27.672z" fill="#4caf50" stroke-width="1.227"/><path id="leaf-lower-right-tint" transform="matrix(.26458 0 0 .26458 0 246.2)" d="M48 132.322v55.346A32 32 0 0 0 64 160a32 32 0 0 0-16-27.678z" fill="#fff" fill-opacity=".2" stroke-width="3.222"/></g></g><path id="finish-flat" fill="url(#radialGradient4620)" stroke-width=".296" d="M0 246.2h50.8V297H0z"/></g></svg>